<mxfile host="65bd71144e">
    <diagram id="zMezTawgVEW45QUirQc1" name="Page-1">
        <mxGraphModel dx="1194" dy="862" grid="0" gridSize="10" guides="1" tooltips="1" connect="1" arrows="1" fold="1" page="1" pageScale="1" pageWidth="1169" pageHeight="827" math="0" shadow="0">
            <root>
                <mxCell id="0"/>
                <mxCell id="1" parent="0"/>
                <mxCell id="2" value="" style="shape=stencil(nVnJch03DPwaXVkkwfXsOP/hKsuRKorkkuUsf5+evOL4sTmvR85NC3q4AGg0wDv78O3h09f7u+i/vb2+/H7/1+Pnt4c7++Uuxsfnh/vXxzf8dGcf7+zDl5fX+99eX74/f778/vXTZrn99MfLn9sX/r7genEhbKjo/7n8xbve//vDrxf7p8dnsi+TfXQWpX2rk31yPgj76lKa7LOrXtr3ONlXZ1nYN2fz/ptrRdqXPtkHP3Z4C9D9DIgumAB052kFc00duTujFfI41C1AzjOguKqc1scGdkBzXp+hz7cauktiheC98/MSZ4HX2dGIvJNDVAIkV/QhMgGKy3pLZjOgnQHifGjzLrefiT6LLqvoqy62GZBcqgKA9CJAcaYS1FydE9raoIRjQHA2Z7TBlWJLDX4gygiDRI4BhT2dbATLMQAcNIdryq6LQ7foIq0A3hE0UxEas+MyAl54uhYX51jKoA0RSzUxbWSTjqvB1ZkFMkJDOK40ZoGcXVEA/HuOpQz2F9FaImdcboMWDgG5D3LfAV2Sa16itYSRIYeA1IZfd4C5IIIPkVPnAlrSSKljABw3H7rA98JxCOYwJ1CprojgA8DTobs+NFagIupliqb9TnZAlGUagDhnHOJX1SwA0nytNUsSACDPt1ShBNSho0tzAiFpvWCNhDuZV2heeho8R8zXNHtbHVpkB+xZfgtQCJBdFKEBrvZzeIM8swg+ABKtgE2KWwKAt9SlQgSgzn7ofqiJW4BOgKgPvfgBRUwlEAAUfCiT0g+dyy50bxL5YIvo20q99gPl9KYb1RkyswYASQF2KXIFqMIPkFOtM0AVxbCExpUMPEZETuptCQGo3J3AvgjWAI95tjdRTzyrpU3uC7d57mZ6kzU3MhF3LbxRcen7ujSgeSnGAMWS6BQ4KiAxBYfhCC3/FGDNf70ls8UJ+tBgSWqYTm51Y5jFzcptG+kZA1Rc/BDZ7ww82ynunZGN3qUt6axSZ4tt6hLPsjOxfDshAAhKY3vFMGlhVU1hS6dxwpGe+7cTEv55+7hEttKSntuSvovLW/YU17tHbu2Hgs5kU4KKQN/XjZgfEXlVyZNk0zbvpzUpqALfT6tyFhNcmeMT6qiL7y851vTEYJGczWQrnJndW5D+AveSaEa+iPNWTvm6q4Yb+Zjm86ILLeL7+3TjSpOr7qtxX15tTKJu2dP3g+wf23JeP274eBSx9EVNqrTOpQydmrp/yBVPvWAebf0xIPM0Et1m0SRNurHoK4prT95H1t0qx4m6/iZbOwtj0rcD6hjgHAPQ+c1uyEWmsS2qLmfZz0Jd09gsJxd0x1xmx+Uwmr1jQOHUT136IS2xl6r0Q0Y5novNNmkQwZ3RYtMKNnx/DFhGfynoFeoYJV5N8qrwNEKNdJRVOZhDMDOgSEYtCwVv0aVGTolzGspKTsHyUK/vnNkCQC8qJ1NhbIkn23ruvA2YCKDrVFmE2snsHADqW06m8xtgdtzJAwAAhdSm1uRl6TZPHjE2P9AK+pmkLGR88hADAAXfyVMPAIvElsyHeuPna9WvVbAnR+vXsFJZQerXtlKX0bx8zUN9JQWvXwthTwr7JOwak+TexBzbL49IyGXhsE1/sL3q0rahJu9HCf66dKZ7C3AseDy/5OkODXq0L99X9pVzRu8H+n55PVbn7ZEVub7PvhCX9ldfhvE6Hv7P67e2xw8/ntq/PD49XV7qr//PT/P40+VZ3z7+Cw==);lineShape=1;" vertex="1" parent="1">
                    <mxGeometry x="51.0503004837733" y="65.7939811175745" width="15.996982240260195" height="222.723688416703" as="geometry"/>
                </mxCell>
                <mxCell id="3" value="" style="shape=stencil(lVrJblQxEPyauba8L2eW/0AikBEhQSFsf09Zg1+euyf1gsQhCa6xe3F1dXtO8c332w/fbk7BfX96fPhy8+v88en2FN+eQjjf3948np/w0ym+O8U3nx4ebz4/Pvy4/3j5/duHsXL89PXh5/iE3xeck54HKLg/lz+EJuNX/Ht/WX93vt+tDxKqXu/J+iTRresrXV8k9nV9kUTWN0nqPFm6e3m9dxINIBQCCJK8BtRIAFFy1SZ0BkhSg4lBJoDNxAmIjjrJV3GrV2OQ3gigSUwrAEZ3AuhS2gpo0hLJIy9u9VLyMxWvA0zmpSiNZWqUtNqQskRPAEnK6tZUpLAjwSfr5UlIbuKlkQhOA/6l43VAE+cNgB2pz9u1A7D0jl5C1EazbI3RxKFIZjvgfnUNoEfaTNwBHHFr7JJN4BxJ7+SkBA3w5EjIzVqMDSQOKUwn7gCJ8FJKJnDcrc/JvANUkt7j8wyAXVFkjrrTqVBuTduV3wNYcejSTWqw5MtevM1WYkMGa1gbGCCa1EA6siNlcUUDqA3FuLVJJ4HLbWbOBGQnjtVQJ0EB4DdidAni1sDBb54cqcR54g0QJ1NdB2RpBlBJepeq45DTdPR1QNfKAQBGxtXp5MORGrnTNUgOGsDKbo1mh0BrXMWdXlMDgSvMBpNLIzVIpGs1vNRmAbgO6FMo7MpuJjs0P9XRpgR4yWqbEzcAjCZFsWWdrdCUzOgGYlQiFFqD7QD5s97pIYgYoE9S2QCwihjdvc4lXHIS6B5nQdsCLY59fpK8rofF5Pb0rMOMEknSotfJD8/rHSkNvevSAAMaM9jkHXQEK9Hd1hK4iJmAI61CBoSR+A5lzWzw5gFAlejSJjNfB7RZLiegeipkAFBpBFZjOh0Av8ahcAWKQDdlNGoJBxTF9IHKDACUDWAYpg8HYNWHkfMwAFW1cGle8JcAKvlGB8VyqU2NsAECLT4AKJYcjSm70EbYe0/lHgBJ2VBoTQegqr41HgHU7CBykvFuI4ld01dZbnR9IVAQE7/UqpeGGGLCZLhJAaCTOTG51WpcucQuRJtN5O5SB2Z0m+m/o42DG6S8BH2WGc/UWWA3t4KN/xvA3Lo5cReHyHbIWuQCQHkmTQ28IybWrfegu8SSaFuJGq134L0DVICSb4h0IcTUqhYmNc2RwktKRpVdCLrIjpR0ekOfUTUW5lBlA0QqQfF5arY0rGIit2sbhqOZBG2aNTqPNFRxXYscYs8mP9DdasYHQCNMZpU9BJpnNpjeATsUtoPpTgBgQt32P/AS69Zth4UdWBxsDzfcygCmS3yWsa/sQwFgQt12uqAF1mHZXhpMxdpK260P6UuOZOcBQ3OxHczEYYgDBjAzjSEOmNFmanIAsHOZI4CZ/AwAm16Z2dIAEJqx0ysAWBW187Ehx0ng7AQOgEzY2874+jYFf+UUcfQg5ALZOeUQRGw4ayahO831ymHrIcLMc4cVxE92YnzgWDuTHsnBHhNsSWm0Btm5+uik2CC+SGsawLhvvA0ooqnzUr30+pC6BtDniqh7DmioymwIuvcDWXoS6fE4aAjfs2ejbqYanfK336hxLx5YC1H0kVqmgxaftRaAnmH87ZPu8qFwAsnWMelZU6M5WlLQGqrHNUgix45k3iwrzyXzKDpUIpudaulQD14G9KMu1tP7qQkAgoutN4/SNdMBn9NNX+X9vdMsCXnG1+s5Di+HTmc1Og1G205Lhsxp3rTRY3JFz6Pb7ka7N3OeFCnZGXsjJ0fjz8iJyMQrOiptTT7gRvD1//cliOP1+OH5Gxefznd3ly9s7P9ff0MDf7p8uyO++ws=);lineShape=1;" vertex="1" parent="1">
                    <mxGeometry x="52.03226466701199" y="281.1777843632499" width="229.0148045400706" height="9.340089218883122" as="geometry"/>
                </mxCell>
                <mxCell id="4" value="" style="shape=stencil(fZbdcgIhDIWfZm8zQAg/17Z9j85U606tdqz9e/tmZ0c0uJ47xP0I5JwEBl59bp8/1kNwn6fj4W39M76ctgM/DCGM++36OJ50NPDjwKvN4bh+PR6+9i/z74/n6ctp9H74nlb4nbmSKZeJCu5vngmZ6jzzNAO7cX8FVKEsBuBKrgKg9oAE8gkCbLeUhEoEQKSUDZDLeWYRKIl8MEDRmHwfyBrBG6Amyu4+kDxxMoB3jhwgYu7TVAsVkFcWCs4CTBEoF4RctKeOxHIf8IXYpikHikAIf+MNUW94AGSSaoAoFIE3AlOyeWU+p2E5S9yfQZcQILVuQOwZdJNoS9Ls3wA5u2XZTIHECqeJ9kDpSaauRiNVcAY1QhdBzeLBli5WazpkSsBLV25uRaqWRyFawTQzRRIQYirJzq5atkBqLfouwqUxLBepthWb10vrWZY6UOAeyKCCtDV625mm9gmUC4Wc3VLJMMIE1BsA2FW9JraVlQB7n3c9oMKhCLEvIM1zBPZ25/umNQ1tVEC2G+fFCC8g398O2hNQuQlVu752DBfA+q0ptnqO5JFmeuIuo9DY7KjY71UxdJV4EntifPWorW++R/dC4t7V3DlIB5cHx2bc7eb3yvX//QNFp+bHDT/+Aw==);lineShape=1;" vertex="1" parent="1">
                    <mxGeometry x="171.07114687763215" y="183.87531245851937" width="4.672539772115215" height="4.665236216357243" as="geometry"/>
                </mxCell>
                <mxCell id="5" value="" style="shape=stencil(hZbbchoxDIafZm81tuSDfJ2m75GZkMKUQoaQHt6+ojtesFj+3i2LvrV+naxJnj62L++bicPH+XT8vvm1ez1vJ/kyMe8O281pd7anSZ4neXo7njbfTsfPw+v8+/3lYnl5+nH8efnC75kTIW0XisOf+U0hif9efJ3t97vDjX3KlNJgH5VKeAzkRi0PgDBJeQzUQrEMQKoUANAahVFCrRSBSzEECmEglEmB6rZoXAClVAGQKYyqm1ACIrRRjSNQicEJKhTHRFgcMtBgcQ13QJPHQGkUZQSUMohrEZ85CwNKdVaqzqVAmgBgxTkCavUIRBvAY+Jqo5KhSzImrqaual00Ux4BixuMkp1QR8AqXkHiMkXXookySJwVs0QPVAQoNfUuVdRyqUtcohRgHqxy2PVo7m8eNbUbGxr6pHoECI9AoQJEt0LJtWikhjTEXjkLUGBpXGpzdMnC0NDo0x7EZbheR9U6EXuD3TQ1KqaS/egzERnMmWIOuMHEcPRZy7kbRW2SAZcMaOEOAKlO7Gel9VQFAKvvoGyfABpi8oAUeIL4W5FTn7brBxCPaWOrblCswV9xsZKAuri74KJQgf54e/sCCJBQGCvbko6WAN/MqfPrnUZl/HokBQVk2nS0D/AmtI1FgrNHTcbcxV3tBQSHl33l6j9akWTJ/VJtPQDr9uIbBu9s/9/x7OG6IL7t9vt5v7z93y+U9mpeRuX5Lw==);lineShape=1;" vertex="1" parent="1">
                    <mxGeometry x="33.03654468956006" y="54.82269122306582" width="11.606613364552004" height="14.350186928983248" as="geometry"/>
                </mxCell>
                <mxCell id="6" value="" style="shape=stencil(lVfbbtswDP0avxKSKInSc9f9R4GmS7AsKdJ0W/++9Ax1puwcI2+KwyPeD6mBH972T6+7Ibi36+X8c/fn8HzdD/xtCOFw2u8uh6ueBn4c+OHlfNn9uJzfT8/T79enUXI8/Tr/Hm/4O+FqphBHVHAf05dEqf778H2SPx5Oc/lEJRt5Hyl4ABBiZwCjBgGAQmIBnCgAgHeOnEVEphihiuyt055qBgC9rxpA9pTKbUBRr8UAxFEOAODJWx/kKw6rAMktig1QA1XgtERKbAEaV6AhLxKhuQx8G5AqZRslDXQBGmKh2JlUSUAeOJO3iZslfxURIrnQq0gA4DXVoXeCQYGnhQ+aGeCDo9LlLbYbbsh3Dap59iDP3AqzyZdKFdzvXTP3C1DIAYBaFK1FJVNOwCI12NZFSVRBM8S48CFBH1JuKZqbBDgjayGlhdMga8LkZBFWBFCTbFjHvAGTJLUgzgsDafAtTfPKA9ydlSAW/cmglFIg7kzS5gG9ELVYLWCzP6WR1pwCQDH5TOJ7JwRQsZB0CqSV47oCql1/JvKwn7vhM/Iw8Phe+dDLF261e8Pf2A2S3IbXur+Rii0jJf4MAjpaZAFK/BVUdigULKXquEUusKdsNWwMdGWYagEbOwNHYgvY2Er0PrFlsbH3KIBts+HFSkdbsApiI/51eR2tliMDTIJG0Nk+8G2TuzWbu3XBQb5Lqa8KRww4XsmoY2BMFLlSLHfIa9V3O55rKV9fwLhfwLC/Oi9SvSOe2uVi5wHOl7JONz9wPdy9yG/K6+H/q+HlcDxOj475//0rQz9NLxR+/AQ=);lineShape=1;" vertex="1" parent="1">
                    <mxGeometry x="43.4235331913967" y="50.80655922125504" width="7.262290921875092" height="39.220678629729264" as="geometry"/>
                </mxCell>
                <mxCell id="7" value="" style="shape=stencil(lVfZbhsxDPyafSVIUedzmv5HgDi1UTcOHKfH35fbhRyLm50ib3twJFKcIalJ7173Dy+7KfDr5Xz6vvt1eLzsJ/0yhXB43u/Oh4s9TXo/6d3T6bz7dj69PT8u7y8Ps+X89OP0c17h94ITJq0zKvCf5QsT878PXxf74+H5xj40KjzYB2Ldto9COQ32SgmsnwK1MtgnKmD9HLu73b5SBeuXSHGMV5QkbwOq+TsGII24bAMaU4rjCSWqAgCJ0hiyKgUQc6uUxx3slOfXLYAw+1OKjaSCLRq1PKahkCCfsudREZiI9THZSQsA2G9uA6BJz+VWqmsYAZlaBNxrnWrXVDNWQ6yerZYbBeTQ6uXQIjVADiNbVn9MFewghaKMAIEuSaY4HlOpFBsElDGGYgwG3JC64kaAigjSuXYFMGVUlSKVMYZs/AaptipRxsTlSgmQSc3j5AENAbKvGxaDghi0Ucz+lCIin4m++TxwggAXg2Ua0lt6pbtyiSFbLQZeiRpxSZMXUE0UkYACyRh0zV1SW5nm6gEVuGRcWgMEuGQdMzvFxV7Rt/TAI1troAB6kCkuj+W7NHhKs6YdNYyOqMwU39aLUsZByxi01XsUg/V9R2+TKKoaoXT23ygugx1UKAUPKKAIGPm0eZcK2qGu8mDjDWi8nwYk9nXJMs3ApRy6xzdcSgBgVUhcMc5weLCi4hSXCzUEsEo6ApJ1DKC4cu2Z1+kkYoBSc0Nl7MPB1pQYxoZiMxmsfMVr2kSLFGdsLW6ujJ3wH48zpCNZbQ5V0E+sBq3sGSg6ruytxqAA/NggpmdUMfz6jSpwn32vwnPSal7NUJi2+sgH4yzoCdKvLO93EiTK4H23D6jz+9FZuoA+lrznMvd5bIM3bjTi3kw2Rv/P3e/+b28P75fJp8PxuNxFb//7y6d9Wi6uev8X);lineShape=1;" vertex="1" parent="1">
                    <mxGeometry x="299.063680043716" y="293.87347074909417" width="22.879577172573136" height="31.780420439095906" as="geometry"/>
                </mxCell>
                <mxCell id="8" value="" style="shape=stencil(lVfZktpADPwav6o098zzZvMfW7VsoEJgiyXX30eOM4Bkpqm8ga22pqXWMVN4+ti+vG8mzx/n0/Hr5ufu9bydwqfJ+91huzntzvJrCs9TeHo7njZfTsfvh9fl//vLbDn/+nb8MX/h14ILkXKcUZ5/L08qJf774PNiv98dbu0DpabsXcYApugVQJ64PAb4RFkDYqSSAIApBAXITNzGAJeoaQ8lUCvAQyFmDWjU6hgQPVXtoTqKgENy1EwaPDGIUnYUkgXkMAYIxVwsoLgxQE787/WFdCUPSMv3ouZQEgWQhxqJNYcicUMeMoWqAY4YkK6NnCZdRBqAdPPkNIcsmQaJa7Er58ZDjQBQVhx8L6n7AOHANqzsIaBlDShUgbwFUDWgCgdEuq7kLepCgNyDeAGkfshRWI2WaqGEAK6/vgBErQAgrzNbAJKGnLiaAspUEWBdcREDPHndyOYnuESz0VJ7VKJWS1JSQEvCIeojzX0EhTVRMk3AwcTNaTJthskjLTlyWkv5ot+RljhbDxGVaLYzUTg0VHGiJcMh9kOOKq4Um4eKRhbznRGEinqAwKljfai5zkGcRApR075xen9qsVWHRCKBBi5zkZ0FOBCo6GwqhEQBgCDddwXw4EheNiDd/KSle5SJaKu0yVwEcV1Nubm5gRNJzLW99JkMKK+EkWvfPu7HtHetbp8i1IWT8tIOwmUOjxYyr5dKWQILYOwkpzoHEmSYtFWMcnc5sk+6yURKaEN0tk8GOEy8ty3GwWVM3Dv9fcY7cbI5e7B0y3Stxh4Vsm9dwVd7VAOy8zf7fbRWSVWa1uLheeZrSTTxD+g8sY+9a37RQi/2xdRMV+DI/v+uVQ/t5cf1Dve22++XK+Dte3vnk0fLfTE8/wE=);lineShape=1;" vertex="1" parent="1">
                    <mxGeometry x="317.0276149836327" y="294.8001403001115" width="29.879536382072047" height="29.754296169974623" as="geometry"/>
                </mxCell>
                <mxCell id="9" value="" style="shape=stencil(lVfZctswDPwavWIIgudzmv5HZuLUmrp2xnGvvy9UVaoB2dvmTaa1Io7FLjnIw9v+6XU3xPB2OZ8+776Pz5f9IB+GGMfjfnceL/o0yOMgDy+n8+7T+fT1+Dz/fn2a3pyevpy+TV/4MeNSopImVAw/55UaqPLvlY8z4DAerwCZqbEFZGr5PqAUat0CIqUCAJ2SBWRdCQAglMQAklAAO2QhjgYggVq6D5BO3VZJtG4CALykuIbUKANAbL6sOVKLAJCWiFdAodDuA1hzqBZQqSNAWoiwAhoJoEanEv0GATAjU3TvJ/h9XsJd3w+QF4GirVDKkNqB2BYo6SiA+Jmq5aloB0DLEnXHukgBcKL7+HWFO2yYBAuo1ECBlBLZslRpGECFNIXUfEgVhKTfy8nn3EFNdXDEkk4qMWCpfi9bQIowB1n/XgEFhqQp/tG3lXe8KNRtQKHoiJqJ0fAzFdsHnZwMmMSFkptlHU00y0xxs0MBilcob1KQClKgzr5GDc6as51USUCJAgVLbe0ymn2mYAukNMog33e/L9Ss52hPKghomizXMjj8mp/YDdYS3BZTVQsXEBXQsKoGZlndoRs0pZxTI4Ed6JqfG33dAbhy75sKZZgChw0rKi5SL4uWLIAm0GVbXGx+rZK6Ijq8aJutKfQGj0d6FnGTeZXWbQGrPuse4Szr4cZRSZvZMVedzLcMnVx9hm0SWjh0oFJ9cUe2pkFiTRVL11phXRXg3Lb+Q8EasSOTLL286wtuB4Yyr97WLTf0qAtPkRu7VXoVwL7JK5MHROSe3cuYAjLQ7UmWqs8BCfe7Lxj/AdCHv/eZl/FwmK9D1//7+48uzXcnefwF);lineShape=1;" vertex="1" parent="1">
                    <mxGeometry x="21.198455750790345" y="290.37612966409347" width="18.688557455551518" height="19.826057495378564" as="geometry"/>
                </mxCell>
                <mxCell id="11" value="" style="shape=stencil(lVbLbhsxDPyavQ70okSd0/Q/AsSpjbp24Livvy8X7roWsx40gA+7a44oksMhp/zwtn163UwpvJ1Px6+bn7vn83bKn6aUdoft5rQ729OUH6f88HI8bb6cjt8Pz5f316fZcn76dvwxn/DrgoshIIQZlsLvv58S5lf7fb4g9rvDDaI3xDIAkiIHAsiIbQAURSMAVYgOgKooQgARMQ8AFaR6HxCQ+2jfEYgDs0+jfUHr9+0zkjs/oBUSAPqYodaQ8337WBf3V0BBJ0VLgh5HQEYjEWdBVg/oBFDKwporQCCkyhJRXAyKRJIkFcVVOUIbARiPRqZqRSBpleaJ1wMS85BRZQQURJYlax7noVGmZoWOQfeOpKTSHWX0cNPi64iAGL2LTAoR49K+N0FklibfnpYlphgRofsyFHKhdxJmdU6Rnd/HFGlCIOdXqGsepfHG4i809wLRi5Te9bN1GxMY02jxgEaoXazbXAwFSmIu3WuYaRJLqoivmomeEKZae7q5YKpamYePAox46uqgi/Kvp9WS6CaPLNNuPUtGTDfbBI30c6no45WMXUKU2+rgmi2GRQfXsxS8h0aV3jRMRnuhAmMimUdVtflOIq4JceRFpAHX5nuBN/9MfG/P5K51qDh7tu/YKlGTu38g+TGtaiMlEoTUy7Swj/cvdG52XbTqylEoyb+JeRvt+zJ418Xrwxvh/yDs4d8K+rLb7y8b7O3/fmW1T5d1Nz/+AQ==);lineShape=1;" vertex="1" parent="1">
                    <mxGeometry x="39.676504652231415" y="305.8018680051998" width="8.71992929359044" height="19.408842744121785" as="geometry"/>
                </mxCell>
                <mxCell id="12" value="" style="shape=stencil(lVfLkhoxDPwaripb8kvnzeY/tmrZQIXAFktefx9NqGGxzDTFbRjc9kjdLckrefrYvLyvVxw+TsfD9/Xv7etps5IvK+btfrM+bk/2tJLnlTy9HY7rb8fDz/3r+ff7y7Ryevpx+DXt8OeME6aUJhSHv+c3OVDL/998PQN22/01oJGEHqCkvAxIlUJ/QlGqcRlg++XaAWqmCk6oTLn0gDq/uQkojbL0n5SpgKALU3NBM3ECMRTKPSAFygCQCknrANwwD0Klz5IkauCECaB9DAKJkzHoRtwAIBDnPq1MsS4DuBCr54GBNDiSuBNMXYDpmEnFAxAPMVCJPcCoVMA0qVN3IkEhUHL7B1LAcyBxrBWoi0BxUGoC66P3TjKSAxAqFe7XJ8pg/0bq9o/UgIhiougOCJSAiOJQLu4ALIQqj3wSK4X6SMzmnCiPJNW8mR3LmDUD8CgLYASJxH0Mk+4AgCvVUdigXLD4LN1xTrQTBjNDbzLJYGbk/uq9c6e8CCW3P65fYZbNdYGE64PzJq7Aj6/nvrZIoYCETdzHa9VMwHr1KjVGCtKQSaL3ssxeXZwtegldMrDUZVXd/gJcU4Pv+xZABQdUnU11yZBQBBJtzafIKEAnaPInJJ2TcBvQho4WZ9kudLRBRjYeoT6u9ndPm1pFBU5umVovPFUqIE3TBOiICHeoNuW4I6zggTyloZGr5QmZoXqxtjhvsVS/Ym9/mythp4o+aht1GVI3TGB1bu9LAJelnGBbMIAO40IBJcZi0L5o230hI4AR12fJemFBbSHPhrkAKs7SpbdeAGUW8G2mw1xFLwB8wTDT1zgAUOErfsqb5ntQmT6H/augE5rmB+IsrYpq68MXvfsAe/i8V75td7vztfT6f38PtVfnO6w8/wM=);lineShape=1;" vertex="1" parent="1">
                    <mxGeometry x="53.99177528415407" y="293.03578361927134" width="19.067012892729963" height="23.5536705968957" as="geometry"/>
                </mxCell>
                <mxCell id="13" value="" style="shape=stencil(lVjbUlsxDPyavGp8t/VM6X8wQyiZUsIAvf199zRzQiyRDbylVDqWpdVq5U2+erm/edpuUnh5fd5/3/7e3b7eb/KXTUq7x/vt8+4Vvzb5epOv7vbP22/P+5+Pt4d/P90slsuvH/tfyxf+HPyitLo4pfD38Ic8pLT/f/l6sH/YPZ7YZwlxtu/S0nn7KiHM9k1iOG/fJZfZvsgo5+1jkNxnhyiaiUOROJ+QhmgkDseAjw5dCnMYEuaQkAUld07BJikVyeQEVKHm2QF1JJdOTepcNpxZ2QkqYc5SVGmkDsh6nu+ANAwGpLxe8ejQJTGHKjnNDllGJw5ApgkpSCJYLaiDTg5NmhL7tCJttS+SSEAFMCjGPpAiFACzGftIqlyBfLXxkPhrtc1cpLBeHhYUZcXhu/Yt+u9XUuGGeiYbTyX2zUKI56eB2uZ6ZWkkno74Z3JMMkg+OyBt7SOzryt1HgEqldkj/9nYs/uOIH1ugEC5dCTp0doT3hpF+jD2ncQ/2soIH/z+WNN98n3SX3pM35t9JfhRwMXGn0k+FXiz9oHEr0Oyuy/Bm3YJsz0qwgCxBDQ3ZMf8ZA5V+nzC0hPcwYzXiiKyHNWVYo89meloUkfrOVAWhUOb74BJE1lam6S5DQaHRbOwS1QSoWzNlrkSGgUsSjLfZ4pF1QoQpbQIe0srylGhdo5hmnemcIJTLJhtkd1ZLbVjmLBZDIcyc1FTjiOQxezQL8Bi2GmPbmNCEHU242ZkKaz/obrm5ulKB6A6gYARNFhIVcrMSC2snzjbnmaEI0v8hDSDG4K8MfTVFfwn2lRZPzeLpRgvpdXsLGWd0+fqVuwYbIMCI85li/zGn7V3YwTAo73g5tSIVIj4QQiHRmrgJy0cGMf4Ub44kDt4rbA4MPHixMilE5zagUMmdfZyCg7hU3oNZzJO8oIQDoE5OMUJxmCSxEta3IpqbKeZ+6CX9qIcGqOTtHrV3zuV2X6tWE4gBOD3FjgwIekXIzgwmlw2r26zxObbsto168BIDKooOAclacVyWlw/JLaRdztMBl9PsWA306J9rcy5Fd5Q/VDacf6RAA6Miv0zBJhKSR2Wh45sHRJ/SrE9zaGB4WHJWPmDEwKYexr0zJ7MIvTqfIJmmtZYrITGEGaLYYRAndO6rCqMl+yecaIAP/bshwM6g5LtaAxtNhLds+XbUD1jb2tQ1xS8a49FzZUgEA47LponoGDPnMGWePC3rGBXgIVTCWs7fd4D1bbOHrTPQO3iqV0i0QvuvjVQUejyCYJl+HH1KpEOKYeHrCs1fQxvF57JL9vjx9ub/N3u4eHwpH/6//YNH386vP/n638=);lineShape=1;" vertex="1" parent="1">
                    <mxGeometry x="173.01800640163583" y="183.8749919952993" width="132.16166582021992" height="7.601505186858731" as="geometry"/>
                </mxCell>
                <mxCell id="14" value="" style="shape=stencil(nVjbchoxDP0aXjW+23pO0//ITEhhmoYMobe/r3a2pkgLx2zfFlbHq+uR5E18+Ng9vW83wX2cjoev25/759NuEz9tQti/7bbH/UmeNvFxEx9eDsftl+Ph+9vz/Pv9aZKcnr4dfkwn/JpxPlOuEyq43/M/XKnN/3yeAa/7Nw2IUQMyOQaASC1rgKPmACBQ1oBWqDYA8JSTBgSqGQAcJQ2oTKHcBsjbpuUL5XBbvlI150eKwIJCSVtcHRV/Wz5b+VIpAJdKhLyWT1D/RIW1vKcK5aNT8pnJgySKVIx8IQf0D8TanzmSB/4MNqkTUwX6BCpByxdieH7RNZAShQT10fonTwXkW+jZ2OVjg/70XduzfKIG8keiqfWPnhKqYcr6/NDIAXvFOiMvGYtKnljHSzyQoP9NPXruFX1DPurzfaGCCMLqIyT2N+I35J2uR2EYBvXirP4SXhAu14vjHC4ovsjmAMVF16CP9xSA8pN3dDY7ysA5sdhqcVCfLOTtjTwih9IoW3mkf1tkg+t0fZ38A7Vk/JOBPtyoReN/lJzM1t7Y6f26fO695MwmlJC9ZcHOFMD50quSN/INkFUWLtD6FEjOwn3sVsjLa8PmWJ+pVnmFvWlB/tCdklz6dBwt34n7vmSo5DXz41zzlYqtRZTL8XzcfbWSKsVVtShzDht5VOtVcsfWIuKSxr2vXXAVkJdh1ugjXAjs9W4l164GTNWu0w1zv7AJr+otAnCafgbNS3xk+HnQHQVgTBi036VKg/4ugGhaGB4gBJAMAE8oAgg68QYj0GSD/sJgxuLFEjAY4gSQdO0PpsQpuc2Yi8fQCWA6B55zJ5XMoIsHaQE4bcNgUufS43rnKiDdr67aNaZ2aZYfvMxwIjbbD96WBJBXrWMcLWCw7/FiIRgslLJimxIdbKxCrNl8Aa/ErdlsHSzdrdqldbDWy2u/6uKgSSc3dxn4akIAJr0Hlx8tLgANxqG5TioXAPSFmnt9nQHcB47rHXcROAEUQAJFcslbQAM25GTjcNH0rk8N2V75jBBRyJLXKBUXVzgDs2WqC3GNY6WnmbViEDq/mFMHyfE/d28jgDz8u+p72b++zjeFl+/t1aD8NV8rxsc/);lineShape=1;" vertex="1" parent="1">
                    <mxGeometry x="171.9882390197115" y="82.93991314220932" width="6.4298940308895" height="103.2578833069989" as="geometry"/>
                </mxCell>
                <mxCell id="15" value="" style="shape=stencil(lVjLUiMxDPyaXFW25eeZZf+DKmBJLUuowL7+fjub8iSWJw25hUGasVpSq+WN3rw93b0+bIJ7e9/vvj/83t6/P230yyaE7cvTw377jl8bvd3ozeNu//Btv/v5cn/8+/XuYHn49WP36/CGP0c/Jy0cnIL7e3zQovj4/8nXo/3z9uXMXkXzaO+l+sv2SWIZ7GuT4i7bF8lxtC8S22X7Jq2O9kl8uGzvgyQ/OgTJJAAfpZkInDiCkMeB0+BQiiQSsl8QWRwQA3EIgFxHh9CfrDuoFHMkJ4XEgDS4sSwynrAvIIYxDxnfJLAqUB9jyE5iJQ6pv687pEJR0iY6wpq0537VIXpb28nT0oh43whrbDTomKSOsMYiJROH2ptxcUg9levt5qSaIymNAZhYBy+BNFzKtuO0SiUxIK9+bCDNHeh1B7WJU6Uck/G+ESVFDKRa81QaoUomQaO/wpi4kMUzh2h7Gj1YmUPuIC4Ovmdm1QEsFMcv+CqB9HRViSNKB2ojHVeXEBeHII4dqUoyw4Q2XHOdFxdaomlrYDnTDX26rNtnKWMAjpZ2A0+rsXeEYRoAr8beE3xgb0YJWJjMqtYsnuAj9v4mdTxPoCXk3RLfCVBW1fMHUj/hJwPIPOAJoMIDnhJQe59+MsFV9KoCquJIx8De0HURZfaph3fCR0kLw16LwZ+eB/ZjvBjKrMGSxSdIZHgmaSNp+U6sl/BJoz2f+cjX1GCMgFAPLl5nX646T7MK4YN4J1UEPBn+ULNjvX2QL9iP8aIeeP/m8fyoN04o3vYjredpAHzQL9faJ8sP3vWKWnfQPtbPRlhjFe1tRWBIVjYkW8/o4gBZSo6EqWpqAvo/87ltxPuhirgyUOPAabrUntXFYWm8S2LFG4dGJ19BHsZEQ6Epk0PLZDzTgI1pwGJhhcpki2OOfQNaHBoXjd6uplDKjSnlqbpj5OIdy/JYfFgPGB8lLLOm/x3dieK0LuMVbOLgANk4RFp82E9MP2BhoFuXWvEO3CKLwVvhiw2DCV8tvXLOdtPMVk2kaaQZbBiNBI1iNjyMDaMSYYF2cYZYQx+l6w7JFh96kF0qYHJk84VK+wGjzNQSeCSTGEBbwTgonbZ+VlPgJZIHUK+Vd3zF8RN7Y8Uo9PYojpWBgUF5zM7Dk8Jar1U7z6Fo2Oo79XPjsyFYvXlQBOwyq8uJ0/zkKw5Y2l/zgfk6kQeA8V2sPVPwzi7ukBCZALrQ4VkCGGdPC9FBgpImmO0zHbXzeRIt0Dlefr054xmpQLr2+vdje/w43TU/bp+fj1fV5/+3d9N4dLzX1tt/);lineShape=1;" vertex="1" parent="1">
                    <mxGeometry x="177.17849974590058" y="118.46031194232455" width="117.2588048500877" height="65.57923117981454" as="geometry"/>
                </mxCell>
                <mxCell id="16" value="" style="shape=stencil(lZfbchoxDIafhluNz5au0/Q9MhNSmFLIENLD21dbarISy5/kbln8rXX4JcurfPeyeXher1J4OR0P39e/to+nzSp/WaW03W/Wx+1Jn1b5fpXvng7H9bfj4XX/eP79/DCtnJ5+HH5OX/h95qKQ9IlK4c//N5F6/ffm6xnYbfczIAUK1QCpU+oQqBYofey5DEQK0QCtUAoASJQs0Jlyuw2oiy1bIFFBTifiYk3KIwyLQBaa/psBtVFIt4GqTjcLJMpgBzUg2sQVoRxvA9x8lEqhBvIggXKwQKVQAFAoOJM6hQyATtFKowYqwAcRimKBQgyiFIPK1TpRhRh5LVTYq0/AFupEszY1oQrUp2Fiq42eh1qWgehT3StVEFfWuLodGqxRVjWL3wGpr6uLNqxaQQycVgN68VEKDIDqTdI8ZAFAoe5KTosQAZWazbSKCVVQ70Nrs5JDnYzjkP8FaMPIZaCMIM5qVBDAQ5szoKOS0zSxNwk1V2m+k6nTEdUDU7OZripvkGmtOGdS5SH4m4AVnzZDlGk1qVgfmu6A+kz1Jqm8Iw5rsXlQOQoqUfZtpl/6801APgO07qPEgSLIg55QyZrEaXxiESh6sjugwygl9rOD5HFkLLdv7a0WmDX0Za8p24pT/UZQQFdnnNYs6vZXx8k7s4meZ66g8fATSOz6d6arOE7kD45vcXS4i7+wvyR/kKhG0Njj6yyTgODUoZaLs2PyW+6/floIo4Ev1+SYAd+WI+VMQ6H/PFyffa/G5sSrnoK9Ve1X+UQwIxO7AxPmSif/7qQPpfDpm8IHAH14u5g8bXe7871m/r+/yOir8yUo3/8F);lineShape=1;" vertex="1" parent="1">
                    <mxGeometry x="320.7700071190875" y="113.8232335512098" width="23.164100522866192" height="18.52252935227864" as="geometry"/>
                </mxCell>
                <mxCell id="17" value="" style="shape=stencil(lVbbUuMwDP2avGpsyTc9s/AfzFC2GbotUwq7/D3KZgy1msrNm5vq2LocHWmgu7ft4+tmQPd2Oh5eNn/Hp9N2oF8D4rjfbo7jSU4D3Q9093w4bn4fD+/7p/n36+NkOZ3+HD6mG/7NOHbg0oRC9zl/KUD8/8PDbL8b9+f2Xtv7BOQNAIF3DQAzZDQAAQo1ACqQrBfEgRYQGDwZgAypBcQCbAEYCBtA9hDLdYB3ktY26sIQkukTlQbAWPOwCJD7SvsCRyjxOiAXXTkugO46IBFQbgFcE7cICBmQW2785GERQR4C6ycwG4m9KJ0kLhovZPAq6ABs2HvwKmYP2YjZ6ZBLqVxZzhGklkklgjPu9wRZEQnNqmGCqDxy4IPhkQdW5GZwBpGkWVRHdwCZINAal8q3pJwHbUlA1N3TSavQLKsX7LpJryhV6hBjat+whnkSIimqCrWNoFOpzL+xeSJCWtmfqSrvjRIg/cMqTbbIeGGCUgBbxvDCI1sn1wrxevvUMq8zGlCLamf2EKTWvjPcohawzvRMlZQ3jmfxtqV1b/5re3u/8F6LS6oJW7YPEFv1Cma5pvq2/EHIhj+SDVTxQjCki2K9rtq7OuKW1feiXnZHxovtyLZPoQrnbf5kSUdaEa9IP/OKfIouh7ZfpF5GfUWWeQ0flvbZYOSnv//K4Wd5fh53u3n3Pv9fL9vyaV7U6f4L);lineShape=1;" vertex="1" parent="1">
                    <mxGeometry x="331.4240093190301" y="111.78929039429204" width="5.558353432252261" height="26.33535259230382" as="geometry"/>
                </mxCell>
                <mxCell id="18" value="" style="shape=stencil(lVjLctswDPwaXzEkwec5Tf8jM3EaT9M447ivv+9qPFRM0Nq2N1nmSsRiASy107v354e3/S649/Pp+HX/8/B4ft7pp10Ih9fn/elwxtVO73d693Q87b+cjt9fHy+/3x6WlcvVt+OP5Qm/Ljj1EsqCCu735Y4P/c7nC+Dl8HoFCElSsIDkCCBLyQMgBMmBAIo0PwBUJSsBVGltAMQkGrcB6sTrAEhRct0GeMQwBp0KfUPwUuoIcJ2G24BmWYoqjQQdvaQ4slSltG1A8hINIEslgOxFx6A10S0VlRrsG5S8oSLEbGMIREtNJRiWoCVPAE38lAcWg3dOnBsRVSpJdYNcR15zE0eibkHKqL7Sek3dpgklNxZELX2TtxORbaobckloykniWEHYpBK5pmArCKlJBKDNyrUlCayok5QxDyA6ssxF2zaQ/Ew6mffi09jJPpJ/m9eJ1kb1Ha34EAKrODQNbznKhFQnYcpaS2y9G6un4Q4RnrfroTtP9q/ix1lSI2162fJTsX+SsalHYj3d/6rJawCpA4/4JgBrF6DUNxtyJhRh9qlOnJItgVQ1W2p8SzqpLkglqlhkZ2SEhsOmIVQ/Fs6ia1aauYd4XThkS7AUcQI0NkkkT5XJ0pBs2lqVSEIOvfWs69FiiVJdNyxX7ZFV/jR00LBZJ3KSjOyqeGbCbMY+ZsoGP848Xyk/VZJRNVwkGZrVmsi/rA+TY8PMrCQBGnsnWQGYmURysU5TOdKyyc5qFP4nMXvkbHMpoTfY24DYNbY6C+SFsIS5b6xIwmBnDbjYNySltOJ5Ojln5v5jtJUJ58xigAN0I60ZFo+8AScYP2oJ/ovlAU2+jsWAzNBu5O1cW/LAbKptqCnTOQW/OJIac6d5o3qCOSBF6oKLdXeYEYXpyHYjj25BCCpdZCuhEtj8SLZyUBms+KcjJ7dp85nWUauJ46VpLmtpb/WW2sz6RtKLU5CZHpi4hE4t/TC65ouOV5RMGgUde0lseXF7xKEFM69HnyH5nfdTqU2e4+XG/Qaf/HA9JwwlzRzOrAg4EjZf//szyj8AcPHx1ebp8PJy+ehz/b/9yoNbly9Eev8H);lineShape=1;" vertex="1" parent="1">
                    <mxGeometry x="350.9997192750625" y="112.87783871441354" width="26.235526045130655" height="33.946370941274495" as="geometry"/>
                </mxCell>
                <mxCell id="21" value="" style="shape=stencil(lVbJUutADPwaX7tm0Wxnlv+gikBcLyRUCNvfI5cLiMakX3JzbHVGUndLM8Srl/Xd82oI7uWw3/1bvY/3h/UQr4cQxu16tR8P+jTEmyFePez2q8f97nV7P/9+vpsip6en3dv0Dx8zznvkMqGC+5zfxII4v7mdAZtxewQIDjlYQEZIpwH6OYkBhISYTwOkoWQD0CTZCTXBRwNwcI7EN9RqM4Lzp+ObwNsKCmok8QWSbAEZlVTcGqRLqMITgHc/FX4jxCGxnCqa5TkF5EYAGdIMIEdKWwuoVhjFQwKhoSLaNpUMJwQQeyUpoJATihZtu1S0BlJ0ETRvi9Y2EGmU0POQVO4M4CBW3CIoFwFiQCAG1a43S5zaQRhA+i551RLxm7a12hOUGKKMibfen4FodRJGH9+InyflWdYSEovPvd18pAVP5rEcBEEgwvvDnzoG2VhdjgCpKCyn0usi65kMoFPM2i03OGIGHZO9e1QpzNCpP0H92ZihLwVkVUaXUkOqpwHJwduxV3VbEa3G1GvviMszF6JyyQy6XLmqL8/ahGq7pNyzGrRC2ySlPrOaUbt8HPXPYsAoj2x/aoOstHWAsF218M5/FskiPgsV9iIfndmNiGg54933bjyvn8L7o3zZ8aW7vLL7Tq+HWKkeLr7jnQHQh98r5cO42cw30uPv/RVUX83X13jzBQ==);lineShape=1;" vertex="1" parent="1">
                    <mxGeometry x="358.1433730276967" y="108.37276557414282" width="17.656114539935515" height="6.829251647394244" as="geometry"/>
                </mxCell>
                <mxCell id="24" value="" style="shape=stencil(fZbdcgIhDIWfZm8zQAg/17Z9j85U606tdqz9e/tmZ0c0uJ47xP0I5JwEBl59bp8/1kNwn6fj4W39M76ctgM/DCGM++36OJ50NPDjwKvN4bh+PR6+9i/z74/n6ctp9H74nlb4nbmSKZeJCu5vngmZ6jzzNAO7cX8FVKEsBuBKrgKg9oAE8gkCbLeUhEoEQKSUDZDLeWYRKIl8MEDRmHwfyBrBG6Amyu4+kDxxMoB3jhwgYu7TVAsVkFcWCs4CTBEoF4RctKeOxHIf8IXYpikHikAIf+MNUW94AGSSaoAoFIE3AlOyeWU+p2E5S9yfQZcQILVuQOwZdJNoS9Ls3wA5u2XZTIHECqeJ9kDpSaauRiNVcAY1QhdBzeLBli5WazpkSsBLV25uRaqWRyFawTQzRRIQYirJzq5atkBqLfouwqUxLBepthWb10vrWZY6UOAeyKCCtDV625mm9gmUC4Wc3VLJMMIE1BsA2FW9JraVlQB7n3c9oMKhCLEvIM1zBPZ25/umNQ1tVEC2G+fFCC8g398O2hNQuQlVu752DBfA+q0ptnqO5JFmeuIuo9DY7KjY71UxdJV4EntifPWorW++R/dC4t7V3DlIB5cHx2bc7eb3yvX//QNFp+bHDT/+Aw==);lineShape=1;" vertex="1" parent="1">
                    <mxGeometry x="380.0711468776319" y="94.87531245851915" width="4.672539772115442" height="4.665236216357698" as="geometry"/>
                </mxCell>
                <mxCell id="25" value="" style="shape=stencil(lVfZctpAEPwavXbt7L3PjvMfrjIOVAi4MLn+PqMoUtiRacybkNTM1d07GsLD2/bpdTN493Y+Hb9ufu6ez9shfBq83x22m9PurFdDeBzCw8vxtPlyOn4/PE+/X5/GN8erb8cf4z/8mnClwsUR5d3v6U5MCOnvnc8TYL87XAByQusBocK764Dk4HIPCJBwHRAKXOpTikgkpZgRe0Bq8CRCqsilj5CRMgE0lNDXoHcK6ZJHdbboQrqUy1ziDPAVjaRUAmLtARmuEkBDaz1AJ026VDPCKkKV64AmaD0gOARSQ8sYn10CEjKLoIMzbPVwpK0KMEXHikoG1wp8HyElJBYhIPVcygJppK117skCSLRL1UMMoFA9FG2ivweQG6JfpcQAEV7uKTo7pFVbIwGoRMt6cFyiYlxD5tm/n5LYwY3kYxJNM/s/SO8iiD3ghoBKsa5xS6IRYRWBmUBzlt6jzTA9RCugG0amijPuPVolS0kH19cwmjFL6V6AGlnr3bsGeEIN9VbpuzSqnJFPI/QCEueoMekhZ3LSxiUyatE59dyoDY6RCaFPqWSquCXfRaGV1iwzDZY5ZxT2vrcJSaMtUiqbEy4jkwJ0Syi9oPkI1MTEHIhwntBI4Pt8RGb5vU9Ub89DrVgYsxOKUadaCCGFnlbN6D/OXb6mHXP4KE8ySemCx8uchYpHQ9jVJ9JNRolv5qYbZWSOkWfLurD6f3vBNRNLfUrKFU/ON91k0spihJ3RdR7sAtBFgnlSRK4WwPaMkX3RplTZFnDvZv8BgF78/5B42e3303fI5XP74aG3po+W8PgH);lineShape=1;" vertex="1" parent="1">
                    <mxGeometry x="335.2880873684337" y="190.36736729965924" width="15.103345625339443" height="14.360283292101485" as="geometry"/>
                </mxCell>
                <mxCell id="26" value="" style="shape=stencil(7VjLbhsxDPwaXwlJpF7nNP2PAHEao64dOE4ff19uDTkryjt2LgUK9LZea3Y15HDI1YrvXp8fXtar4F6Ph/3X9Y/N4/F5xZ9WIWx2z+vD5qhXK75f8d3T/rD+cti/7R5Pv18eppXT1bf99+kJP084KeTKhAru1+mOTxT5z53PJ8B2s5sBOJLUAVCWAeIp94AQKYZlQIzkk32DixAQpAcUErAlBRQD0DsVADIlQ5pJZBmQHGXfAzwFsKUkFlBhGlIl6YNUKAAGWSj1eVZKgEBxVhe6HiStRGK2+/HL66sjL4avOLBe2uNmAfXoBZk42JQFwLjWFsCZKFJaBninMXJWdwEItYaW03MpKACw1qj6nrUEEpQGRyV3gKiJz0AXlVwfphSpgi3lQrUHlNLeeRmQB2UrByDtPKS6Rqi9VCj3Wq2FPOCQAjnzhkoJiEmDGI1Lvif/sutlq6ZJX4CEuBb2M0AVDOTHaop9qrVGEAlmYsNaPQm9IVDtAUVNAOibZQAIeeB6XK2+i1Y1sDGJ5HrbmwSMMhfI9yWneiyAdFQluAEA9J1SK7D5lkCmc2hpmpFGXpkTFTeEFZl9sS13Shyq0UJsKki3hADRcpjEh0hrQzRqVXmjsEr7e15AwDa0R9tJ5lqN1ubvN9qAmm8ZjMaBRHAmMSTitRqtBoANX2vUxHWyY1zUHwSwtWPNJdK3ugD3rT3iLscaxL5GRR8BfEbY2jGrbeCR8v+E+A9OiGz4fnxCRICLEyKI6N+YEKstBf32yShK3pIIZ/O/nGbfWvi5dlLreEuzT+3zrF90BQgjiO0N6psoTLGNg+cdcUv9xfVDUINvc8fC87MVEvzCVYfsC+dKGxk+oV0bUhZHEvt8RglIg4jgfnSCMc08wHDqNGyGMIY9So3IfDJE3Mmj3X+GfMf19Zoxmv14PE+NhH1obffGiHpp5npryiI8JBk1oXWP3PrD5zY3APTi/ZjoabPdnk6Z5v/bYyW9dTqS4vvf);lineShape=1;" vertex="1" parent="1">
                    <mxGeometry x="190.01275625163748" y="52.79029194391137" width="12.875505381519588" height="26.648886792182566" as="geometry"/>
                </mxCell>
                <mxCell id="27" value="" style="shape=stencil(lVfLctswDPwaXTEkwec5Tf8jM3FqT10747ivvy9Yl44BSevmJptagQssluDED2/bp9fNFNzb+XT8uvm5ez5vJ/40hbA7bDen3VmeJn6c+OHleNp8OR2/H54vv1+f+pv96dvxR//CrwsuNnK1o4L7/e8fptD+/vP5AtjvDhrARQFSoODWAclR9QqQI+UIALLMClAaZRShEJsIlRKvA4obFK8cHNxSiZY0B/IgQm6UogIETxEAepayBjAlvw7gTNFpQIMcZNkFXWlHLQBApqYjpEoxA0AlrzlkyRLaUqGWNCBRQxGyLVxPNEirJJF1hBIgB9/G8hUQMSCR01kqachxGeAoJhsB1WHGuQgplFWbVJF7ATmSVa3tXIbaV943hDPD9pTv6+5MjSrS3Vi9vi9Sh/nx5vs8GK0VIOjeTFimPlLRHpk8FcBYRBSyjRCBqYpMvTEkUR2qsZA2W5KioUYotpmzOE7FzawjiG0j0t0uTG9WYkQ6zhrBUwKFEyVVXTjphIZaLVPSUpLe9KiZPbU4AwAOZSj/ppcdSBLPvn9HSda++smWPvg+IOysV3CD51qhqL1CilhQLwdymrB0XwUJZR7xr8KG52bMdn7x0FzEe5p+38GCST3NQe7JA43WOrzqWmE4TrViz/33E2jFvWb+y5E8oNCqHY9iGZa8DGDLIXtyYE9VjigdoZ+ySEbiRlpHlcmBNImMi95SC8OfVnWht3STuGXlOetftQ21rzlkMKWukLU4pOmenGFeu8ubZsCzdsi2cnemeQEUbQDRjzFx7RwxheAKG1rGzmBG54LrIB5mIiR4eIplFJ0laQhUBxmdWVdaPoHOwm6K4SMASaKZqe5sKUY7ANwhLfoOPEsraOre8yYCLlysS9JAHJaukgwq/R93T3l4v7m+7Pb7y8X3dt3edOWvyy2ZH/8A);lineShape=1;" vertex="1" parent="1">
                    <mxGeometry x="212.80872859203237" y="50.8691041924485" width="19.586872501695098" height="23.399925387107146" as="geometry"/>
                </mxCell>
                <mxCell id="28" value="" style="shape=stencil(fZbdcgIhDIWfZm8zQAg/17Z9j85U606tdqz9e/tmZ0c0uJ47xP0I5JwEBl59bp8/1kNwn6fj4W39M76ctgM/DCGM++36OJ50NPDjwKvN4bh+PR6+9i/z74/n6ctp9H74nlb4nbmSKZeJCu5vngmZ6jzzNAO7cX8FVKEsBuBKrgKg9oAE8gkCbLeUhEoEQKSUDZDLeWYRKIl8MEDRmHwfyBrBG6Amyu4+kDxxMoB3jhwgYu7TVAsVkFcWCs4CTBEoF4RctKeOxHIf8IXYpikHikAIf+MNUW94AGSSaoAoFIE3AlOyeWU+p2E5S9yfQZcQILVuQOwZdJNoS9Ls3wA5u2XZTIHECqeJ9kDpSaauRiNVcAY1QhdBzeLBli5WazpkSsBLV25uRaqWRyFawTQzRRIQYirJzq5atkBqLfouwqUxLBepthWb10vrWZY6UOAeyKCCtDV625mm9gmUC4Wc3VLJMMIE1BsA2FW9JraVlQB7n3c9oMKhCLEvIM1zBPZ25/umNQ1tVEC2G+fFCC8g398O2hNQuQlVu752DBfA+q0ptnqO5JFmeuIuo9DY7KjY71UxdJV4EntifPWorW++R/dC4t7V3DlIB5cHx2bc7eb3yvX//QNFp+bHDT/+Aw==);lineShape=1;" vertex="1" parent="1">
                    <mxGeometry x="243.07114687763192" y="43.87531245851915" width="4.672539772115442" height="4.665236216357698" as="geometry"/>
                </mxCell>
                <mxCell id="30" value="" style="shape=stencil(rZzJDt3GEUW/Rlui52HtOP9hwHIsxLEMWZn+PtUQyEfe4jt0ggBaSE9dZA813LpVzQ/5u99//uG3jx9S+P3rl89//fjPTz9+/flD/tOHlD79+vPHL5++2t8+5O8/5O9++vzl41++fP77rz9++/dvP6yR629/+/yP9YR/fZObfRt5SaXw72+/1L6tf9qfP38T+OXTryJQrgJ1K5EF4lWgbGGiQG9XgbS1wQLyhrjFhgLtuoYyt8qLrvUqcEzynUC5bmup2+Q1pHEVKPsj3gnE66JL3kIBgbZNmVLcOp1D2+r1HPLcf3knkPpVwPaNFt22cF1Dtl9o0XXr4SpQdnV8J5CuB5fz/su9gD1P3hC3SapRtiwCYSv0hrzleRFItq20hrTlq2qksSvLvUDcylW9U983+l4gbOmqGslsOrwXGEO9Rspbh4MbfctX1UgJTXRUPYcUdqO9Fyg6pTjRREfe2lU14thaB4GkNh0Pt3AvYF7oenCxbQV0qc9tXu0h1i3DorvN+LpLsew2eC/Q9+cdAmYP4AS6GaSswdQRFt3rbsGHQNwaLTpv5epmYtg6rSGqIzOBACfdg5ro3DLMqB16sI+3H8B8WtvadQV9V9778VVP7bCO+/FFHbG5cjizlrcaZDzOP6m/aKgTLW5Z4u02af5B7aDupnc7vg4/PoK/q8d0j8i2Q4778RZZJdZulcYnRTBmZDQ+7v99hIRtwPwNfPQh48nVlaHnlRGBlQPRvcbTfpa2RX1+gPMqTj9tw0B/DKgIdEm8P0ldysPzgwLItE2wR4M1GmB5fFc3zfMxUFPmfzO+qs99GH/E3tP8wR5zcqBoi3C+BmgUCCI6MPca9PnkD839if80+6LxBkwFyW4N9meBmet8zJ/Q+LJH6dd4nP+xHS//WSAe2fGUa3zpaI8p7hH3FY8i2LshpXzdz4mo2oCS+AcLqBEc0MI9ErIjWnB0EdJQxAAVjQ7+GU4ZoKMmEBwS6jSlvMP6EzhLgApMQFCEbUOnKaV9xieAOUEvovdzYRs0paBIaFk+aLYJ5Oui00Mu7jyjhXqCvEoOLNXG8RK57RdyLV3nY74pg2rbkYrnSjs2ug/divyWb8XxQZ5f9iO5D03quSw2RAo1OxI+ZdQTTD+rp7DYRq4iq8YV1rikkcZiM2X4ztMZVqBQljQ9eWGRN+OVNRlb5ecLjzNxP5NG7oXtQJ/THojO1BXOf0pkKpipZ43ctSJ0zTvwP7F7gaCWelHD4qT/xUW+gE7UsSuWSzS0L0HSjaGZ2e9VPy13Iuja1H5bRWjfdu09xvedOnnjrwSJWm5JNODQ/bHcdRAhtrv7Y3xCqGJxWii6XjAXs5gkjFtvSG/FokfWBzI9FrnFx/WJXNICE9dDHgF5yQVXRCBiwmRxWpiekZBWMQQl2GBktLMV2K+KMcpOC77DjLKtg2n3BUqFxGhPqFfAxOhIKJsx9CuYGGMLsEvLGoIKNDhpM4d+DQdjMlKemqmbQIc1GHyY1zfMgyx6lztJ7jo5Yi6++XoOMyJ7mx1GMAF8Q9VzmAn5m9zUa5gAYeU8NGwuEpumNHdkfBLAFD9uUXapoJsx3CGRbVaMnKVorcEECLqUqth0lStoSk2LRPNI/N/xMrpLDbMiAzeSUawqEHi+6piQVcliqkuosVUre+DS3JRQoLmDexBwXmMJEAZwScjDGwyzqD10LAc27wQ6pi0t74TGSYBw5IIhsoa2FznfcdCCxF7VuHsBR7rMiuWPNvdM5WSilOsYdKlFBSgoLmJftpWJyp41nZ1cVeoOf5pvJZvujlq2gEIFx95vgiJV9/oBCE9hlyClgZ0o0KFiDmNgR2pv4yDA7wWS1tPtF3xDdms4SgT3AtXB0IlFotF0Sr2jPdiui7b2ijHOzlVJuYxVhOl8q+kv5bamagrWA5dlj4L+KXsgm172dV1DO6jSdwJTBArG6eUjJKHJqEvLC8kaEqr38nPXgGIpIlFIL1995KwTOaE5bpJc8kurg0UaUhomTashpagA2cN0XsPyevKtN001jGZMQJSvVtalcUM1YH/JUFK4cnwwAUmmnwSmRtE1JTqHqaXlp0VPbQx62taphNg6ONql6XqVHlRj7oTWWfmoC8dxtibwMKUgbzBUyQcn9crVM0ZrGK4A03e8/04gOgF0lV3Z/NqQnL9pMmtP/Vb+4KjrYAlcfaupBpWpbtZQ90LO211y6k1s7zoHb6K0S/6kCyKB6UBiPQozf1RbuTh3Yw91j9z/H4EYwk2ASIBOlp9xIQg75YbjKeNTT6SQAo0JppVJSqAuSAqs5FagwIO6Vj3q1rFZaaETWcNkC0pqEIsNJWWKSr/3xGsIO4d2pkOpy2zqLnWGAsO5jdWzRW9omtOMh8a3qtX2cTQMvkPr3eUDFNlX45vLOLBTLmo/4XgoAwYlZ1bWBH6mD0clTiwM9K5wZtFw1PhWHTmTkEUwzUlCnWTk7RZV7/JjCtSWXwgtPRklmn1NRzDRLll+IUnQimKgS61rq8qCgdz7powUNyeY22pJBSgqNtdPODm3tIRE2tnm5EVHt+iJPcIWDaYXIN7OUVinoPQHWbJHCUfEPUoctcbzMsCGalbmYQmA46hRe6NNYMBGlen4Su7kL8PxZBOZuNLVl5mGEwQqTdHDgl1EAxfNIVaGSv1/WaPW5EZk30A3GU6XsGc9ZyqbKgRzzxjOrgkOLruM1wQKVWqa0yXGrquLzpcUaA1ZO8gXYgFdWr0koq0Z6ZbsmLhF8dAuhS3KLiU86TQchZrwpJO7/7NuD1ARz1X9DERhC4W7s7FKbPQGZw+Lc4VzWF0sQtIO9BopOoKzY1l+ddSJQMPIG90FiVGxkSJ2ZeIGg4HoIq8JRNil2LTENjIXtR1Ju4AgvaE4ojkiexKzUncGBKlce9ONMLnx0N0VMAGyBxMQizOoSZlZDLrozlh3Kp7pXJd3Ft25RaVratkfiigKvQ2X0vyr29HwMP6GxKbYo/G2NewqyMqEPlDYWQmHxt32aY9jZwIbW970skbA+SRVuMq3U+J+F/JEjVGOG7UFsjZkDsINK0sFrODoFY5pQVv8DPRVON/gqMCALZPBtTTy7R1H9hSuvwXV51LxfIMiI8N7PB/R/5LxwlVQH1q4pHm0q+zjM18/jEoy5oH+Kmrtw5Abds9rlTgXvr2gsG616BJwVH+YE3bnFy0yGGqj2wjFrTdgQutaFFc3P7YwC7e4rj8QS6D+PDGL7CpJq+mY7k3u2n6Mj3w7WxOuFBgUBOVRIneJxagEmEEdWoEJSFdv5CpPTOqDDOoQDF93Bdw1S0qtY9EosC4DMNYSaicGbv2vavcTq9X+ysbg8UMvjXV2E1NxE1/9Nq0Raqpiq4dppfpFrLOt1m3xK5jLpZtLVxjmy868vcZTmF84SzQCe8OW3YtCYLab3CVCrkCsVPS6PwFZtXVtvsp4bBnMSjlwmPeX5LiZwl/CexjvLvk9jHeFLCbT/CXFh/GOw3kYnxV3BHQoxfVtB+52rFpgCnunxztabOr+U8ucoTZpHOEySHG1fqYlDEWKPUb0V6szUuhSDMPV9Zuy/dbq/QnBUEP9grsTd0W6vJMv9VrW4vwh3rSKiiM4rVoXOfTSMxGGltUpjsZG7dVBqf6fYEpr/lI7pUnNXUWrXPhwNeLGn3aIN/GUxifl5TrSo919t2QgTO/uWy3MvPSueZIBFKqUdtdkbjiN7nKtlkERSFh1H9HdEc34hlVIlWurBaHo+qbI1WgMdpHWLZJP3nDwq/cCTdOT+NwIKX6I62dj6JQSEzwzaG/CygGprh8VHS/fBYt+XU84BAqCiZn1WsdioakRoKj1pIYU8qtacQh0vKC8GiHdV3zwalfbZ3xKLCkRfd0FOGWulOlOd407c5biuw4tV8dmnaHMvME2igpz3HxCKnEnjaQFefIuDa3rl4iO27cpFr4t8yponxgfbI+bCq0XuGIB6REpnbd1us+RTf5o23RNtRHh+BIQmi6hq1wCks89XEWfShQ9fXjOT+nh03ZTHZkJ4Ke85k1fIzXGzKMz+SRAqHBO9ymcwV9IG67PdyBuWPbgBdimlfB9FFCk9Dgl7fN9XLRgjadt7VrEeDq4rjevnlTjf/mu4oOA/eX1GcefPv3yy7evQJ7/Xz/7aD99+2Rk/v4/);lineShape=1;" vertex="1" parent="1">
                    <mxGeometry x="76.88411718248403" y="70.03921816565139" width="232.3650782823404" height="204.40836071169701" as="geometry"/>
                </mxCell>
                <mxCell id="32" value="" style="shape=stencil(7VjLctswDPwaXzF8guQ5Tf8jM3FqT10747ivvy9UlYoAWetkpoceepNtQMRjdwFzE+9edg/P201wL5fz6fP2+/7xstvED5sQ9sfd9ry/yNMm3m/i3dPpvP10Pn09Po6fnx8Gy+Hpy+nb8IYfo18j5wen4H6OX1Ty+fcXH0fzw/44Mw9MPhj71NbtU6RclH2hCt6fC7mk7JnYrdtzoeKUfaIK4imNos7XE6d1+1psfRz5COwbcTb2DsTfAgU29hHUpyXiauL3DOyZiq5/oFiBvbRT5xupgfq0RlnbZyogfu+merwConh4QNUFbb3ja/bOFEg6jA6Q8zWifaQYgEO2EflEBWCiCQeadsi9K9cdPDndNM8UgUP1lEyX5UyQQxEa6y5EASI4oWR7QnIQSOLwpyaTwwStNYemmZBrD3I1B90HEYOAHCQAHdKQFSK/o6xDEnrfUJemT5DeO1SlQk1DQ9DVAH9KoqbRKoyFSQuWdA7CEKioTNUopMMaxqETbHZEBKIkjW0afQMJQSMyW1JLmSIAU0621SK0EZ2QuqzPWu0Bg3KmYAYn91GxNtksmCLMgZ0Fk9AcCRMLNjRHBcABJM3NDh9x8AjfsRdxFpJH+Jbx02zSDjMoaFLXDMVVIk4mh0oVVGmoiaFc6DvHmmyYESrgc4ij3H+ewTujE4IdukIg2Ljaf545NNAHjhYagwogB7eQjQr1XihqOc1QmIRxdaGVaMiJgxUBd+uEdzr4vstOAyJ1sFx3mN43jSDRJXSCoFU7iI6gQS0OrDuduAN+LQeTdBRtRQ6RvNkdZIyikIpd6X2FK5noUtadHlYyLDNN55Dh6jAs6bqqf39Jt/a3lnRTof9L+u0lHTlcXdJRRP/gkh66NEwO8l8YjYVp3E8OovJoxVjMcwEemrYpdabPHBggdfn3XxyQHC2uF8S+Iq3oFZkHBFJOdr8YMgbiFey+PVAfVMj3wT3TugrydV3NZz1OIN8F0QR1qD5L+wTva5bxhL6GvjFfD/+ELeopSgA4sGhX7Tvu29BQse6+7y7rprk8vF6bPe0Ph/HWbf67vWaTr8Yrunj/Cw==);lineShape=1;" vertex="1" parent="1">
                    <mxGeometry x="266.03967521926415" y="222.21840354619303" width="24.009838964081155" height="31.924294776890974" as="geometry"/>
                </mxCell>
                <mxCell id="33" value="" style="shape=stencil(lVlbchw3DDzN/qL4JvHtOPdwleVoy7LkkhU/bh8wG3KHwEyP87eW0UPi3QAv8d23xw9fHy7BfXt7ffn88OP68e3xEv+4hHB9fnx4vb7Jr0t8f4nvPr28Pvz1+vL388fbv79+6JL915eX7/0LP284T651UHC/bn+ojnL89y9/3uSfrs8b+UCtavmWjuUThaTlizuWL1TiIl+YmI/lG9X1+6URg/t7US+vgEI5AEAgv1qoRHLohEg1LIDcKAGVfaa42jTHYbV9QCXHCyA1ihkAxEqrVVOEXghipfVKkSkjQBhGnIACrSSBkcsKCFQLAJjIiI48UFpCo6yhEcRuwKzyvawAiTxQWm4c19AQM0CAZINbAW54Zh9Qxvc2gFQBoJFnDfDghCQXWE/wPD6xDxAVV8dJdDWQQBJqNWtABo5LmZJfAZUaCI1UyStAIQZ+kHRpq+MkB1EVy1K0igY4cKUcjA4JFoGcyCkrSYoCs+ZMRQGkNqMTqi5k3hOjE0wCCSABQHG6LgkApWiR7ymAI0aAYBznoNJFMi5rQAEJVLLx9EnDqsZxDjYUaVDRKP1fsOwDeNx4AwhAhxpG6R0ApgZSuiYrj2K1Zl0zZj7ty1cKQckjhWvTHbSRA/LN6e9X6OPmqXolH8H9W9QlT1IJeLiZ3lag/dssPnf5ArKgVcqKklBE9uFx3UkwIKdiiXiv5Cv4Pgddf6WCA3vyJB93+YDks+6CeRy4L18GV5l0B1YVnu7Z9I+GAHUU/23Ogy7LVTOFE43rqGrzgFGL9+WlpqzyUopBBot80/Lw/jwKziRfo5kcyavmVEdZPZJnpW+kDFzs3VRwS3RQUPCYCyagUMU6qCohfK/hE+KqdJyJeugFxePdGUC1juShmXocmRMCjuykdCg4dwz3isIqkKuLdnWvLkjpMsjfhqE6DGBFEsJg9kc6BFOvQf8QeRXd4Sw7/Rp6DtZrNsTrNLRVfRcCgO7PetA56Qes+1MngkjhObNvGTy+Ea/1RUo2Yl27gIx0sD0BN03bdASAyKztajLIMIpT0zbTSSaYviwANEnZxi8AxBwts0i4dVrqIoCCuIjhRgKI6EqGfAnAg+Cz7E4mUERPLX082Y5YfiqAAGqeJcAyRaOJ1jLsFCBFtRReOgM8wcwIAkB+sFOItBJUNeycIwDEquwk1ZcTCGBmtXQy3JlpMDkYrXbe7B0aAbwpMw7OUsWZIiDNAVCxPpWbK0W0iqiau6W53TvaLOhtIQ6NPBNyE61ogZnDMOI2gQIASCAoHRIcMRKPVd+meiNGnKyVGtzl3UvvbKIO1qVehRQgwH1kN6LZC0e0mnODn05Agjuk2MYUMgFllOfDfeRayHp0gRTtG8+mAQltPMNo49vtOfB0dHqU6SkFrBSapg49y9EiuYw12ebJABFQoSKKdZfZMY625/pVBTM4IYSK4krHQEVAKHNUK48GN89C2FSflkYcgFl9HkRhAuoYSvcBSbNulpaFrhQ0bWXMW70JDWHWiCTORfZ9rMdztHmTYLxpM69hfbBGkaTjghmWDPOad59Jd+WdVpjx65l5FpJRqAL7zM608RhKBKdX1EKq0abN6T2MUGQH9VVLg1ZGN/1N+ThecH7vPpVhSBt9a4GPYMaewvs8lM+mrqC9jYmHivfx//f1+Fxeftyfqj9dn55uL93b/9dP2/Kn27N4fP8P);lineShape=1;" vertex="1" parent="1">
                    <mxGeometry x="529.0331557888296" y="64.11063651184531" width="200.77556957758884" height="15.174619483534002" as="geometry"/>
                </mxCell>
                <mxCell id="34" value="" style="shape=stencil(lVnbchs3DP0avWII3vGcpv/hmTi1po6dcdw2+fuA0XAlgLtH6Zu8BpbE9RxgT+nDt6eHr4+nGL69v73+/fjf+dP70yn9cYrx/PL0+HZ+11+n9PGUPnx+fXv86+31n5dPl7+/PgzJ8evL67/jDd8veoFKGUox/Lg8aJlq/vXkz4v88/nlRp4pVSsfiOuxfKIQjXwtlMOxfKYgVj5TicfyhUqw8ol6P5ZvFLuXT8BeoWjtrZE6uA8z5WYVmFoBCokkGYUiMyb7CpWqU6jUQAhYpsc3hUQVnBAjsXVSFurASRq1br2UK0UQZQ1DZquQiBNIo+DzKAeKAhQiFXul1KgAG1LxmadPErpSo2qvlNIsjv3U3iplU9BkAbma43ICLracSayC5m9AJzTibBXUSw0oaD3YwGkFNqBQ2ButycLgSiX6etB0LCAOJU8nbgoBX6n4Exh7qTTf9LjhK3US2wS4UAcVV7UNWxs4w9TQLhRt4LSPJFAP2ubEpjdjt2qfbu4EpoqupDVtoYRxHKrmks1WIQFOUqTp1oQ+031fPlJiJx/Q+xM1K68WgWpr2jEc9szE2pevC5ZMrNiX30rxKo8C0Lqv/jaTZFe+azNpTr6Dpt3Z40injN6v7cvGSyAodE1RdvKC5AuxvY8mXGWgUH3CaUpH4NHelxN4Nsx9BfEh0ysVYIME34tk4ta+fJwweY1BAWUvydORDmFTiudHHWKaaMo7PkUVyTffGeukDvvy3ddMpAZqXuWrzaEA6abKu7aoRQF6hAgl1+TmC47kq5Uv+P4y2etNAglykCx9vd2zwEVMOToMmXhypzna7thsczTlWdmHTrVBSx2i34ia9ergVjgtHL4mvSTovSPvnA1tdsvDxLZXUgaKBhFVaM6tbeb6kUJdeM69ExzPUVIBAEoVFoBFZFCdxM5mHGeNqi82BPgq7zIvTMQ9yiMXNL5XCm5GyLg5aiV4gEK8cZTaQgMDSFMOwVMKNQHih3jMHCCOYiye5NyZWoZCXBSQV9syPVY8Yi+YkzuuhAXUVAGNaitqqkJACgss66SEuOMK/Go0yg2lFsEZXTBbq4sNCUKP0qPgZmy8ulD+1d0JPBncIcFzJwTYMJRBJtdVBW53BkW19aDIkDAH7jYO2rcjIv3bJLcp1IlGv8niU5lt7XBMYK8QkEJaKi5TA01gDDoL4GY8ScmigJrAGNWatwHBoQ6Dbi+X8EZojJsOoRuk2jVTsPOppgZajujInNyVtgH0aCiv9oSM1y9FZo+4KaA7i4VsI523Sx6uLrpXQCNP2bant00AKUSPWdpmAlLgGdcbBVQPeVmp5gxXF3kPUBAPGGswFwe8+xtOdFfqkBOP5aOt6RIgso9loXWr+k1AAY36sslXtoQ/Wni6bC0V1vRYqVo2pvmLkm+sQ9xuPsJmrHRK3MJjq/KjxbPfzuMVwFhtW4WW4bzH1fdWRYyMKFmeRGHjxBHOJsyeVCpyozWJTHK0yavNQH5ZRiq7QaNM8V94JEOGmDzPUH6G7s9+jpEK77NuPASuMML8fHKdiPEYEDwVGwMpKITg11pjiQDfH4s3GO0wwuLQDHc8waOIMAzYMjMot0Q8b5XHO4nggfa62Duy15WYwD1t8Kvshr9BhIkWmzzuKv/3E+d9ef1x/Z76+fz8fPkce/t///1VH12+3aaPPwE=);lineShape=1;" vertex="1" parent="1">
                    <mxGeometry x="524.4605915218001" y="64.14848766517946" width="235.63536862370165" height="13.604360681034905" as="geometry"/>
                </mxCell>
                <mxCell id="35" value="" style="shape=stencil(lVlJchsxDHyNriiC4HrO8o9UxYlVceyU42y/DyYKxwNQ6pFusszWYO8m5iBvvt9/+HZ3iOH7y/PTl7tfx48v9wd5e4jx+Hh/93x80U8HeXeQN5+enu8+Pz/9ePx4+vvbh+Xk8unr08/lF36fcC1Tjgsqhj+nb5hC+/fF+9P5h+Pj9nyhWM35SJHB+UqdzflEoYLzndj+fqbeL5/vwdtTqUVwnv3vdyoJno/NxoepZWjQf3tXgBAjiwIlGyFOlAMMURILKBQEANpkUqUKfFBAcU5rlDBAXFUwFZA29cGFNQplUBcapWajpIUhBQAitWABFUapJ6o2rLGNb84DyiiEAZCATZp6QRgXd/MmiVBCgE5iMy2JOirvTi1ZQKEEio9DoGDjKuoWClOjZlMtfcycS2HKbmToTAIzpuuIsCaliMOU/BBIQh1ljkf5r4BMBY2x6qsvVUoIEKkUC+jQh1qo2ihlpgrCWtlPyqxhAE6X6jOdCxx9RYvT+pA7VeBDCb5cS6QKTMp1DOsVoHkA5aoWR5u40jAgj6ivfMKUkUmZgn1CTWMYngfonLH9oKnsCJAHI68AbfMdp22UGpMAUtewZvuEJiSgpzWvbJ1WHRFQLSkruieU0eXnAYmizcPCYiBKWgjJVqtShqBqLcTWJO3yhkzS6rcmdRmBvtRA2QESFRBWBbghoBwTQU9rMVenZhqc92UttRWwMvF5AI+G3AAyqiXx2mHhGOCDjt48AdAwljhJ1ldSOotYxMjkBOIsjkOybQBIMSnLTufR9A6eHvqqey+cj+58g0GVqbYbZkRK0Z9Hsp6b128KgClQe62UUZpvwCIVCT3fAshhqOYrTdIhJvkWp1+55sqoanvmqT1R2nQAzO2J6kIp12nQncJTbnAMulfZlZg9APWOTOyz2555qlY8AXhixJ0ZU4d+vHKI8Zn2RFNy0sQ7Y/jW8zzlAPMCTwHFxMNeou8wW5waAVOn+OvhDjcnSk4tYPKvQ2ZeqS70NmvH3Y580Tu/m787AkkJJDuBhCUYi7/q7Yg8ThScUMUyUp/QZ6GKnJbRU1dK4cUHJ+fbUECXfGAbVh2xsC/XO//2woDyUHzlZTzuuI5C2F56EBNWT5159eoiwEZJL24FNfMktvVqiGpJ2zm6C3SFmX7dvWyutyhxi95xJmmxgOJbJrADRLhn0BZ15Z0CHJESBmVs1gwJREllpHvCziJDAewAeFcyC1VZ43YJ0GweROAcU4C7Vi1eIV0YfQNp3BJyOngfFiWHhV6e9m6oH2IZQ2Wz2UvABy0+nnaHaIe79IN7Au8NAXf51B6saAjo5HOap8IoKaEEG9adHS6rZHBPwFviPtZN166h/Upsb889XQBgDtR+lzS8p18Y101JuCpdCNfGB79nWKjH/j5+j6Hnu1u6w/ckylRuHAXsb/OdHCATasm7fTjePcsU/zACcP589evFABWSEoa7uWDNnyeJh88vPJ9usKcGX5/YXxVPbsOL46lybrIf5aslPxZxPdz8Xm73vH54fQn46fjwcHqHuP2/f2moX51eOMq7vw==);lineShape=1;" vertex="1" parent="1">
                    <mxGeometry x="525.032438006368" y="72.78813993920926" width="6.312955661739579" height="204.3568310433834" as="geometry"/>
                </mxCell>
                <mxCell id="36" value="" style="shape=stencil(rVfLctswDPwaXzEE+D6n6X9kJk7tqRtnHKePvy9UVaoAS5t2pjeZ5pIEFrsgd/Hu9fDwst9JeL1ezp/3346P18MuftiJHJ8P+8vxql+7eL+Ld0/ny/7T5fz2/Dj+fnkYZg5fX85fhxW+jzjpFGRASfgxjuRIPf4a+TgCTsfnBSAm4mwAJVIBgBQpW0BlYt4G5ErcLUAopm1ADVTYA7htA1qi4I4UiMs2oFTK1QYt1EDQOZHYI6V5ZD2tnVIyAGnEdRugxEm0OzCVAACJuk2rEicgaJl5nQGVKtph5nXBdAIAntebAVp8gDiOVIsFZEhcp+JKKWHeqIs/0G99rIdMzZ6n9GmF1fmBms1QydQymh9sggqTACkEynb9XKbK3Ti/NDtfpQbzw67oGnWwfvN8pQLzz0K1ewCDgLn4jCoAlZCmKNqQkyoJUKAy4ORzVFFNJB+DOhosormGFyxDoamX2DItZSJyHSAUnG4CCeCNlVYnZWwWrDE4KSfYR5gp2FIapAwcUrvCjTQriHn+d2FGAXkLRUdCJelIak4KQ0sApAXf1XKbUvZf5nPw3qUkRlQU2Rf27Dbrjbx6isPUs9abZqRmI9AiQUrTru3cWgu9gZJo1duvdtkOABxuDTVRBCz3TtV2/tYhQO8WYnfQJTJQvyoxOd4CJkI93V1fdIsEwtabgdjE9oo9r0wOt4i6gCDUht2tUNVckG/rzcDJ5x2ApsldwbQ1Y0CwBlACDJpnS1z4dnrHwmzQeu2raAfxHjO0W2TDyZtMDpBp5UHskbS7oVpSjyi2XLWjC2pWPGV9AUC+pEacbgAF3Um0EG5iaMjIqn9hZMY7/Ouj5y8A+vHnjfV0PJ3GJ9ryf/8m06HxPRfvfwI=);lineShape=1;" vertex="1" parent="1">
                    <mxGeometry x="505.77667362371494" y="40.66003945439206" width="21.888000541329802" height="18.969116829449604" as="geometry"/>
                </mxCell>
                <mxCell id="37" value="" style="shape=stencil(lVZLctswDD2NthiSIAlwnab3yEycWlPXzjhOP7cvVJWOAYuYdifLeCKB9yEnfHjbP73uphTeLufT192P+fmyn/DTlNJ83O/O80WeJnyc8OHldN59OZ/ej8/r79enpXJ5+nb6vnzh54qLIUAICyyFX39fJaj1z5vPK+IwH28QjaCRAqQCmR1AgKRXyBVqGwOoAVUFqLJCGAMKQkEFaBmiA8jU/74CCBKOAchArAENEo0BqUHWU7qZ9DYiQEx2CSxjQIxAaJtAh4gCsdopYXQWgBh1fYCcx/V3SuLamR98vxVdnyA4+6lAWdUTAzqkRQRuGlC6ULYpEOWbFRCasyOUDbMFVGdEOULSM6UM5JCcGwTTA3VatknOwHpLLKw5biviZwPI7pQKQ9DSZgb27CnC02NtCdgxjzSdjdsqoOdnsYKRKndzjIird2bzmE4IkSyAkiM+8Va1W4pO0/eRJKHniRWidk+TITg8izt1WjBBdb4fbMwzAnqkAet+6RqBo/pyV++k1xJfmuNFuU7DKKeMVpHIJDqU5WIDVVj3zp3M/Rz7CHmojopE2MZr5BqhJNtCAXTipUjLeqgiW2emNdrAi1C8BKYugV4fXI1KGpZg6r0zUCRgBip3BycdWfK8mv1H7+4S7DEuA3bmLxYMep65B812PVuNUnfpdn3rwXk1cXfRdqj8923tXxDy8HE9fJkPh/V2efu/vU7Kq/Uqio+/AQ==);lineShape=1;" vertex="1" parent="1">
                    <mxGeometry x="528.7868876887212" y="46.77866251888963" width="8.63022805639639" height="19.087939368361504" as="geometry"/>
                </mxCell>
                <mxCell id="38" value="" style="shape=stencil(lVfLctswDPwaXTHgmzyn6X9kJk7tqWtnHLdN/r5QNVQFSNq2N1nmiiB2sQCH8PB2fHo9DJ7f7rfr18PP0/P9OIRPg/eny/FwO93laQiPQ3h4ud4OX27X75fn6ffr07hyfPp2/TF+4X3CuUYxjijPH9ObzFTr7zefJ8D5dFkAYqDsFKAEam4fkD0l1oBKgfcBpVAxO2RqAJAbcVaAFKiWfcD4t1eAECm2fUAo1DTAJ8phH+AbVR1SmBO9DciUNA+JKQIeJADfNCARAx68p1I1oPYgNwEiDa8B2cFDu0QuaUAgRgCRWtAA3xO9zTSVYiMK4MyBItsjB3TklZAiBUACE+vvR+EdKJUpaJKjcIZI7umb1zMVkNDYK3FWXSEP4qmUjUojloTvhTgDpPgRoJCrdoeETryiIGTKoJblzM7bHDE4s4jI7BAjeVTLEoCWdazQ8aQ0qwaI4SSQJdFpMcVfKKMsMSVTONz33OZB7MVUjodKEqa9zpLUsgOASrzaANEghqtpS2KQgGdHxZRyogIsm7vw5/UOlj7b+GOGZre5Hhi8tDBN8WjgmOJs/L2b2bbVebsel4GEm7xZjwQh9BivKF0h213c9Y7a14sXMADUlaZFUxEBGjlDgVAMjtAyeQ0QDaE5wfHK4GXYqYDlFm3PlCgbKEz5ntc0LDbdJqJ2nXVEq5AJMVDTRZrYOJDe2Jb1DlXcAByi9kqZ18sX0EjYm+RiIkRZFeVrP5WBEA1TsXeMBWsFZChaqRaGXU3arHHf2tvcTvzNeGPqQ/S2KOwsKN6LxpBGycxdfxnUXB/xF+0jovYhGdKDhdgBGtSk37TVDoxK7X/vIf8AkIc/156X0/k83ZqW/9trkryarljh8Rc=);lineShape=1;" vertex="1" parent="1">
                    <mxGeometry x="540.2633844549935" y="31.303047393175802" width="19.417508625384244" height="17.742327179315907" as="geometry"/>
                </mxCell>
                <mxCell id="42" value="" style="shape=stencil(rVbLchpBDPwarl0z0jzPjvMfrjIOVAi4MM7j76PNFoTRZjs55LYs6pVaUkva6MPb7ul1u5HwdjmfPm+/7Z8vu41+2Ijsj7vteX+xp40+bvTh5XTefjqf3o/P8+/Xp8lyevpy+jp94fuMi4KaJ5SEH/ObgBB+vfg42x/2xzt7TdDi7DWu22dB6YO9INV1+5oR6mDfkMj3e0Vt4/czOnEQw43gFZEiMnORENIAyBmZuGjZcy4FlQBKhOhIuqO1dUCyqo0cekMhHLRBHcA8dAJQlLYAyDpAOlR9SIl0ktXJc7A3JCRRRBeSQBIBCIKMaW2ImQJ0FENTdCWAhOgKZ93FANVzqAWNhKQRcdRDTajEgy7SWpVWOgVI8x4SqXSyv5PnIIUA6jXiG6BDmAdrNZdWQSccckAaFdduiV7zUMa09gglvWQcHGnr1kAKZ1kKTg8VnU1WIx294qimM2QE3M22PyMCqngXgYm6LGIq13m7ptHmNKrIbArcJHw3+jLXqF8QGco4KHQMqUXarkbazfta0RiHjjruRNti+j8BSf3OKlxBtlGa21kBnZAuCX0cfcqzZApyIdlAT2yjJL8grDJsfC9PEwOw1uh+ZU0OiIDK4nSwZmRV8Fvabp/MFpaf9dE2IkmpqXOsWczXoqzYuwpE25AknqV9uO67f4unorCu9nRtQLK944UvvEF9sSKNfdELgY73qdf8Wcsm6d/PZnv4fXO/7A+H+WS//9/f6PZqvu/18Sc=);lineShape=1;" vertex="1" parent="1">
                    <mxGeometry x="768.0293814832428" y="39.81024182535646" width="17.04414635490525" height="18.597707871849366" as="geometry"/>
                </mxCell>
                <mxCell id="43" value="" style="shape=stencil(lZfdbtswDIWfxreEKOqP1133HgWaLsGypEizrX370fOcWYx9gN45sT6bP+dQ8iAPb/un190Qw9v1cv6++314vu4H+TLEeDjtd5fD1a4GeRzk4eV82X27nH+enqffr0/jyvHqx/nX+IT3iZNKJY1UDB/TP9woyd9/vk7A8XBaApFy6YDIVOo2EBMJ94CSBvCGQNo6IAm1tA2kQFk7IAdKALDbrQ8pF2q6DRQLoE+6FOK4DagQSwfURiUDIJP2QAsUQZW0EeceiLAPqr5xLVMDOXAIFEJPKAnKWueyz4BGqqCuWkljD1hMKIlMxQGNIqqrBdBnbUGWsg202+0F8E+P60ChIh5gEFIT0l6uVoYIkrbGBpd0ogz0bdJxYlKmCExtQOvf0CpVBgDPt2+A2Ry9QSg7gCmhKhUKzkEmPlQl9Wo1ywnIwaTB8Q4AnTbxhexDykitlZL6pCsQ36gc9WWt2HHqTG1zAUjDgHonDeQH81e+E5+ishZKzkCVMrKorFgUNi5Q7Tu9GFXr2rBdjv0rUEyfBnKaDbaYrgEYIvE8t25isikAWm3bIvfDtZprQdKs3nIlUUD6nqfQYlcsQEvBSynleRRurHcGtZQqsE/2Y8+e0MDz2XrgzjIMhWRHE9dloQK2q/Hg0veMYY+F54POvD7MEa6vF+9mLGuxGcluPRrCdthTVyB4xhD1u22E884OYi5+2xTAbDEPtH7c3WbH+vpI0sffqAJTjuvdoLCGgQZbQLW3AAvOINwBmRJysc7PuwEVDuz1A/qngU4VdvH/e+DlcDxOnxPL+/77wf6avj3k8Q8=);lineShape=1;" vertex="1" parent="1">
                    <mxGeometry x="786.8049725650083" y="38.864471502712604" width="24.85152956231991" height="21.94772906922708" as="geometry"/>
                </mxCell>
                <mxCell id="44" value="" style="shape=stencil(lVbLbhsxDPyavRIS9T6n6X8EiFMv6tqB4/Tx96W70dakV1P0tpY5okgOh5zCw9v+6XU3sXu7nE9fdz/m58t+Cp8m5vm4353ni3xN4XEKDy+n8+7L+fR+fF5+vz5dLa9f307frzf8XHCeqdQrit2vjxNy7c/B58X+MB9v7EOhwNo+k0tjQArkggJwouzGgFz6fR0QArU8BpRCWXuIjmocA2oiHxUgMQXgoXny+kk59yu2AZWSBlSmVgCg2TLUTBFkSQBN16E5cshDpaaDboESqHTLPesrIMPCtUi+aEDtUW0DpEwGIFEBD7VQ9BZQAflqtJWWJ32QZRvg7zxkSI3SKHmbVgZpLdWytUrtAZcEYLIk1HAgrdURO0u+jABMUZOvrOwaNZAFVEi+eheDNG1ADSQN6S2gILbKk4KNISDyFWrag9S+oSc1ik0DErEfA7yTjjSFqJCu4iJoF5KHiIRJkmJUIMFSy9/3PeqRbLCNQR6ZwZMkxKRl4yYPQzmu1oVHLpjYdHUhRnyVBxhAhOTYBgD6ZWkYHYOcFDTlVllZZ5CoK5qjUmpduShZAh6idISZoyKWQPu4WcEPDpIp3lVa9BmUgftUvlkd0BT1nfurfYTd4GyD+lXYBvaG2t511RnZG8WAOuwoaUVKXXEG0SbdyrL1AD7IPmHWKjh2ImXNHt/Xsm16UtalkpmC5iyVYMxRx0ueK9vrQSb/d0n9t718/N2IX+bDYVmob/+3G7QcLdt3ePwN);lineShape=1;" vertex="1" parent="1">
                    <mxGeometry x="481.2056251134536" y="261.9893958053517" width="23.03208309079764" height="21.729704352543195" as="geometry"/>
                </mxCell>
                <mxCell id="45" value="" style="shape=stencil(lVfJctswDP0aXTEEwfWcpv+RmTi1pq6dcdzt7wuNhooBUXB104IHYn0AB3r6OL68HwbvPm7Xy/fD7/H1dhzoy+D9eD4eruONnwZ6Hujp7XI9fLtefp5f5/f3l0lyevpx+TVp+DPj0DlwboJ593f+FIDmD19nwGk83wGqgxqEPGbAug0oBEgC4Atg2gbkDCULAGUIwQAkyEW6QEAWgKBEAYjYjOwDPFCVgAzZ8gGBpEmJbIBrLi6ACsEIK5+QZJRygWj5QJDkCSXC9LoJCDrTNYKzfPBQpdM1tTO7gJRbqS2AAi5uA2JpMVkA1aylkDuAYkSJos7DXYd0EZ7j6vQRybAJCTxqry2bIlCS8hkSbss73T+cBjQS7VoZLPLBrCSCoPQvie87zAcoANoRqlAlZTDrJKMZCCF4DUDDJCaIGPYAIpf+LpNSgFT2OM0NHcoqrBYDBMi78sYApwopmbTHFBRV4uzKS7gy6UFpM0+qsNrNQ1U39MP+ZApYHWHZhKkDQIOVOCaknbZYDKGu0mDR5GpCP+DhvfJceFKeB4M10Xl6yt7hyROsutPx4bpyhn7miyoJkocnWQ4ECGqeZxtQ9OCJdjd7D0HmLPjGsltV52WdUmpp7wfVg5O9xiqyUdc8qaLkCy7cbNF2gSyjxCuJ4XNgRpRB8mbfMKei1I9tgdiazYoseAkzQhqZs6V+1+ipT0YOCJW8pZ+3ERVQm1im/ShreSPDxesRwgYaNFFK+/0pXwz9lTRbYwtYXz7rHXXZcvvyq2nAXWmsFbuvFv8B4IfPm8zbeDrNF6H7//rmw5/mWxM9/wM=);lineShape=1;" vertex="1" parent="1">
                    <mxGeometry x="501.8543875154455" y="253.0797394368617" width="6.268588513147051" height="47.493883383062666" as="geometry"/>
                </mxCell>
                <mxCell id="46" value="" style="shape=stencil(rVrZbhw3EPyafW2QbF797Dj/YcBytIgiGbJy/X1qsuBo2NwpIUDe1ivWDvuqru7xRT/9ePzy/eGSwo+315dfH/68fn17vOhPl5Suz48Pr9c3fLro54t++vby+vDL68vvz19v//7+ZTu5ffrt5Y/tF/664aLEuIFS+Pv2RVUJ/d9vfr6df7o+T+e7zeeTFHJeJeX5fJDUzs9n6W06X4rkdH6+Sgrz+SCR3KdJne3NRUI5P28S6nxehwfu+ydInR2UgxRicEyS5xsp7kgsjlmCzoAiyp4AD5YZEKSzJ1Tps1PhhhoIoI+Y7k/IEpmXTMw8oJIwIO/KAjBiAxLPJbaqWCYAXGCOtCaaeUg9H4cgymxoPtL4hnkp9RGmHaDSiA24QJy9lFBt5EoafbbGJoEYDSfGOTWQjsytW1yzB6RKAHXU7xEQCaCN3NwB8BIz2hYbkihJ762C58ChyhPxUo5i8xMaJRlwiroKpcmdl1yN0kgi5So6+zRIYAY3MXXnEwlyNsmudqTo+XlwdJ+Too/yvn8++S6CEDOOLOrbFPLaSBKhy8TZArhU2ZWq2Ex5qVAfFXCkq01UP7PBpDm66LSY637jAyFFciW0+uQ4MlFCqmUBoF+TblubpDnxtI+Geh9gonPmofgSuVKD0a5BJw5Q36tQfZUka4NAMA/oxIZWx5+PANKgG7J/BZD67MHHAYBG0ruDH9wT8rDqPkAHwR10UiHZ2ssilBo1utdBcQfllkgu9T5IegfEUYP3ASZ99hJooZFI25JLhRtt6vstaKExQBni+gCoJA7WvWbYACQ1APBubVQzmPneAB4JzEs2nLgDKiUyAGxm74aZgcnJsLenHYEOQ3IDj3B8j/RSbkSd3WSJijcA0my1VToIIBCu5PATmQNck9usIvltbcicHdCGrD4DqDM68+EHsmXOPhRhJtS3+WS+EpinE2JaAS1TKbNeqXaJLNKL0dvEygpicSta9wcl5wK3sQC70pIaqNHIvLQk37s4OE1vV6Ncda8F1Picfq9GGw/EQgM9f2S1IxoLH7GAozLwLVtOrGSJb2jJLXR88MP/hUCPmAXKe3BOu5B6ABum0eda92Ybu1JYiIPHGjThn8B3FH0RirCqkISF3nDZBKsqkw95aOEDlzV2peQFO3pKYCIriM1ljWdWpvvQEIIHMGpChbmRAADGx9Cubs8CgLL12OqlTHkArTw6xufTN3glzukNR0eSfOB3p7/7Po+fTSleb3RKA5iDzDWhSpeg6CBh6Vqs4mrw2rUpXWqg5TTHx3Fk131AW54QxublbOJ1Owo4urIr5aGFd8C+WDyb2tuy+2XqGAOAObHLl7/Zho7chw4bobwP6J5bMQexvUCufrOxTYskDts6Ofon0N2M+s0DBiemHjLYe5mDEgMEX0AIZWY7O5SLU0B1FO3Zzm4dOtjgpIiregBLPtWRCAdRxvb8mvySrwY68WrwFYcqZ6mRzK9bMAcxgZ+a7w8oUTZpJfzenK1gDSaAUvYFtDUA9gT165bWKHuve3g0sUQivW36mwdk/i6h6PIEkq2xer0OtzKjY/GNvVXaFKN6IYqGwrg1pqXHBbpNjMFzK5oie4J5HtuEAAlD8xPHpjTYHs7XJwQa20hlP8ZhnI5sy+8XJ8Z1yfLacZtcWdr5tz+bnCTnl4W08degwZfBu6Y+Oa8uXjZY/OR8XLQna2zBb982FUZ/3w1vSFAm6Ndhr1LhudwHOpFNGIu9lY8wiz/Bvfz3XbwwD7NXoEs+VJ4///01+kfn8eH9nf2369PT7ZX/8e/+HT++uv3/AP38Dw==);lineShape=1;" vertex="1" parent="1">
                    <mxGeometry x="608.0667855449633" y="58.931502938496465" width="193.2335697522492" height="14.135969324186703" as="geometry"/>
                </mxCell>
                <mxCell id="47" value="" style="shape=stencil(lVjbUlsxDPyavGosy9dnSv+DGULJlBIm0NvfV6ep01jKWchbOHht67IrWRu5eX28e9luYnh9O+y/bn/u7t8eN/JpE+Pu+XF72L3pr43cbuTmYX/Yfjnsvz/fH/9+uVtWLr++7X8sO/w64nqjVBdUDL//fenU+e+Xz0fA0+75HFCoyATgECgEgEhU2nyEHoqOiFTSDCgUCgAEimUGRMrgSq1SjhNg+SIAkOyVWqSAAEwlT4BaKPZ1QG1UeAaEccnLgGyvVBKMXI3U51CXML5cBgSS+YSsXsrrgFKpz3HImRicUNSG+UpZiNEJQjIHLjM+QU2cky91isCtuVGd45AqCcilrISYjU4F2pCdDUmzC6SGmhjYAhhEOjVntKYGsCFlqjOp9UsHjEtMtVtABgDpw8QzAHKrOIoqAMmM5AturYCiIsOJZ4DUAEBzKVuAgFyKakNyVwI2RLEUVUADqRH5wpUaOIE7NZ98IJdYbXC5JCDSnCkFC4joBKHkrhQTAKjci3MrYFylZryaYQHybCiDgZejQKHb9YgM7AzW3AX3Dy5mPL6srJdZkaS8s3+Y/RM7ZWDvqd6f1qsH4H14TlJOQzNX1ud5/4YTyMqjCizgPdu6GQZLV4JrZEWtgcuN9EZYDMQqhEYKSZClO0e4XuvEnAnKf9RUuPXKnQCvb+4jugPQK2duCnC9a1kWiYZMtDWgULomFxamA//4SixDiz6WydLeYaJhijDUf8/EBJPZMZ1xfJ2SLNoLlaEZ5aSKlHwE57Q97M2czuKHx5XLneoH2Oy6osKQ6L5oYQ33VTHCXsOX3YjLtKvrkeJVjcOp9fhgZ6ItI2jUfevD423wwd5K/YkaUNe8Rdhk+O5Q0wkps2s/9T5of9ff8pUNtHIF+Md36Ayz3z8BAuwL9RllpIfHw2ntEWNKC37p6Sspm6ch7Ob1GdbMlIEY8EXfed34Rx0EAlbU3yahlaIgYvpWzeaEDMVcX8OWAm2IwGWA9kWGw1hA9UVvHrcq0IJGADLaixOgwbDVYmkjkRJwa+22JC3MAInUtKEyNSaOOcVlQB4N29mLHo2TWhs9wNmQAfWrXd1qABmKY5dRdU+Ajk8olp2aLMitvQ01OQF0C3RCG8OjE6DCAtK75YOmI0pvBRjFrjzmdmuAOqdGTbCzX0aXcxxqpY7av+AaqIZlezliJrWmV8N3agbQxzx01erZCM0WNOJSgB3hFliqFMAG0EYs13LDtHVLLDHgyqny+wD98X+I/bB7ejrOwM//b4fe+uk4MJfbPw==);lineShape=1;" vertex="1" parent="1">
                    <mxGeometry x="679.7282204026199" y="165.2861638833872" width="129.40014978928912" height="11.65638221377094" as="geometry"/>
                </mxCell>
                <mxCell id="48" value="" style="shape=stencil(fZbdcgIhDIWfZm8zQAg/17Z9j85U606tdqz9e/tmZ0c0uJ47xP0I5JwEBl59bp8/1kNwn6fj4W39M76ctgM/DCGM++36OJ50NPDjwKvN4bh+PR6+9i/z74/n6ctp9H74nlb4nbmSKZeJCu5vngmZ6jzzNAO7cX8FVKEsBuBKrgKg9oAE8gkCbLeUhEoEQKSUDZDLeWYRKIl8MEDRmHwfyBrBG6Amyu4+kDxxMoB3jhwgYu7TVAsVkFcWCs4CTBEoF4RctKeOxHIf8IXYpikHikAIf+MNUW94AGSSaoAoFIE3AlOyeWU+p2E5S9yfQZcQILVuQOwZdJNoS9Ls3wA5u2XZTIHECqeJ9kDpSaauRiNVcAY1QhdBzeLBli5WazpkSsBLV25uRaqWRyFawTQzRRIQYirJzq5atkBqLfouwqUxLBepthWb10vrWZY6UOAeyKCCtDV625mm9gmUC4Wc3VLJMMIE1BsA2FW9JraVlQB7n3c9oMKhCLEvIM1zBPZ25/umNQ1tVEC2G+fFCC8g398O2hNQuQlVu752DBfA+q0ptnqO5JFmeuIuo9DY7KjY71UxdJV4EntifPWorW++R/dC4t7V3DlIB5cHx2bc7eb3yvX//QNFp+bHDT/+Aw==);lineShape=1;" vertex="1" parent="1">
                    <mxGeometry x="679.0711468776321" y="165.87531245851937" width="4.672539772115215" height="4.665236216357243" as="geometry"/>
                </mxCell>
                <mxCell id="49" value="" style="shape=stencil(lVhJchsxDHyNriiS4AKeneQfrrIcq+JYLtvZfh8wCkdDUOqxb1rQXLA0GtzxzevD7fN+F9zr28vx2/7X4e7tYcefdiEcnh72L4c3/bTjzzu+uT++7L++HH883Z2+P982y/bp+/FnW+H3CZeFkm+o4P6cfvGUyr8fvpzsHw9PK/viqfBgH0jydXtx5N1gnygmYK9/l8G+kIDzVEdhPI93JAwATDGMgETOAUCkYjxUiD0AJOsiX0kCABRyMvo0UEAAoVhHQKQMvForVbOD7lmvA7xz3SkLQi+B3FQpjwAOPbWuAcLoV07kwZn01mmMHAs5tEOhOgYibuRGIT+6KTIVlH3ZXjrmni3XckPGyMVKBUUuEaexfgIVgQBzh6T5iAKnALODQApoRxp3yJ4YV5CMNZ0jMdqBbbrmQjlCFpA4soanCOIgpSfCAlA3gB0u8JJQBtkqS+Z0gATIM/p3GeMgsefvZYC3XtJbJZAaCjDZKlq0COD6eh1QA8wl9UkdS7SxJ2CyiWW0yFFm+M5ai70GEsQ59Rit7APiPe7UvgAyCXBRYPLFAjI4EUdLewpAPBlTL641ANxB6z1MRxLAMZnJlclLoKlrNcrkVsSTudou3eIMcjtnS90KEHBppaD/J14AtdPUZS9pJlcLQEwcQ2eUFaACL7HvTfwsTRykAC0Hw6y6BYqc13pgC0iAxmInuZU90gGui7VVGBK4s17A1L/2YLA+T0EoUB6quItiAcilKr3KVD2I83jeIXfdcdmlvq+3BoAYaOaZhqsAlHnZ2VbShAqgDK2enC0AUYbWpzdxENgOPwyoU2YrS6G4ycR6AWaGUr0bU09wKYRJRGv7jCgzfE/9VYMWsINSPRuAhx2dM/F4pCYyEKD0XrOSMaieFVDGI6lQQg1Xj2SU1YYUUxFfxx02xB4nyzEbclIBpuA2BGsDjHfYkMQ8ib0N0c1xmjRwM2kqYMzWjcGBuSfCO0cTXubydw4/CrDzGB6vtB5MtjKuaaVWM0m3ERGVaLXpHXA/DEu3Wc25AVy6CUSzQ4RjbtN7o1t1VkfprS3RJJ+2pIokbukHWL03IF7yadIZywx4rYnmMb29h6xRbA+VLnqviG62Tz7oCWfqnwxXnySJh6trzhn3UwQCJtiZSj0DzFV8jIdxkFh86NPQ2Z7ROFL7s87ZHvkmFOscFZyYrKf1kZpqnCPWHrgnedv2HXzYSlP9us7E1yaXEK3/kc7J/SHuHF7kz4++jm7b64fzU+z94fHx9JK7/t8+3epPp2df/vwX);lineShape=1;" vertex="1" parent="1">
                    <mxGeometry x="676.9734832901204" y="167.7926868423208" width="6.466107473852844" height="128.0469699901978" as="geometry"/>
                </mxCell>
                <mxCell id="50" value="" style="shape=stencil(lVjLbhsxDPwaXwk9Kemcpv8RIE5t1I0Dx339fWdraL2ivRPk5mw0okgNyaE28eF99/S23QT3fj4dv29/75/Pu038sglh/7rbnvZn/NrEx018eDmett9Ox5+vz5e/356mldOvH8df0w5/LrggsU2g4P5ePjhJ7v+Hr5flh/3rYrkP0uKw3nvRtg7AftUAmlRPACrqBkDIkss6IDpxdQTUfsj7gNRP3AExSlICqOL9CFBJxEJy0sIIqFKJhYQDjBamLRIBZKl5BERxgQCqOB0BSWpdB2QnwVhQKQwQehBnQBVlgCRlpAZsFuJD1h6TGRCkMgCIUEYAbBJ6q7P0hs1MLCgOMLIVNiO5adWeXx2gXhrJB202gTRLzOuAEiUbAMJA7qHM+dUBxdEjlSLFAFAWSBGoTvzIJdgMJKw1SB5TFDYzcbpmcaPTBXFjRyr2HmDTE6dr62SeAUk8CWvznWozINMotTkhZ0CVwgBFwug0bHoS1tbsPcCmI2EFQJMFVA4wCdRQqUgh8w7lewxTU8q+dpMQiEMjKQdAMk6gGpOOMv17vAhswdgHQHAWwMo3TpzKDYAdSW3KTVfDAf7GB8eOlKVkGyXPLGRbZ+CVZ1ECwNyDiuMWylgF8IXSVSXc0DUwLqltoy2Ksgyay9ACwKrxRI1qAUw7ANBuLHyQcqlZpzPPh6o2rInUmfs5ShOi9RRecIPGtdmCjzhkVvuaVX34whov9kvRAmhc0eVGHxZxWEPYMHGtiyhGtYDAesqnAUnSqESnHGFeB1FjAW2O8BV90aiHD5oQOm82bQ4+kJtD2wyjBWzBKhM6uSE4WjXrENAnRn5ji8IVUDMWHE2hSWONFgp0IrMQrdOFX1xB1I1kSpQaEJamQ0DFRaZ1s00ICEtlWnfebyFdWQ+CdrZa19MoZbV1JqMK8JnDAgotG9OEYQBcumKGMZIpRyosMSWZuSl7GiXMYXGkRuICH5OeaYvYgonj5G2UsIUSHyKKwFj5UqA5jQG6jtTAFsqG9rnNLmbwzN4RqpXfMfSWcR+QrYi7bnG/LYJqY1hDpPLEz2SeOwrygdzDDZVSH+JXlhteRPo0g6FMzfJAaOc6KWdvpfDlJpo9vGvLx+v1tLQ4W7t8d2YtMvaViz00uC6tr8sj6Teuj3XX5awBestkriq8rbpYznjfJfXiMOSaPvn+9+Fy/Lg+Nb7sD4fLS+Xy//ZpEp8uz5rx8R8=);lineShape=1;" vertex="1" parent="1">
                    <mxGeometry x="682.5100051941342" y="172.31648839211903" width="112.02454204073706" height="75.55476280352241" as="geometry"/>
                </mxCell>
                <mxCell id="51" value="" style="shape=stencil(7VjLctswDPwaXzEkQfBxTtP/yEyc2lPXzjhOH39fqBq5Buysop5y6E2vJYnFLghqxXcvm4fn9SqFl9Px8HX9Y/t42qz40yql7X6zPm5PerXi+xXfPR2O6y/Hw+v+cbx/fhi+HK6+Hb4PI/wccRwolQGVwq/xSazU6p8nn0fAbru3gFwNIEfKAQAiMRtAqcQFAnoygBYoYEAWC8jUEEDH6xbQifvbgFSpBwPoTNwAQCjYGHohQTNEKg7QqOW3AUOamk1c0LBAImKmwMsQgTgsWVSh1pdErSuKS2iN1GwEM3lTrVpxzwjjTMel8gSshylaQAkTybeVVzyjkiel3AQ0pu7s1qiAnDV9bXOQO0yyUh7sDBIpgQqgOS3WbiIUQRa6LiB7lhhpO1wlohSKQBg6RbbKqGlKzW1AnYRzBlTKaIZ8VTMiVaAllaYzqIovA5ramcUzQKAbVJzCfgbEa1X1VR8DCrqqvsWzhGitKh1bxvRJASzVMJF4zrRQBYbQ8ZoVk3TqEQCy33/UcqiIaYjdJk4NEQCgpWkDvPBoRx5VErMHFFBnevSmFnUQYKkLiTM1UwWFSQu784M0EjSDyttKo+S5KlCd4wJFIA1dkteSTEO8FTTb7UQdghyntLJrHJQlUPpamV5fWhRlWgHNAxLaEZnEbYkZ9mMp+WqsvMni9gqI74O2V9bTH6O9yssQ/9sr3NiHKbp3nhyuhDpzNDlvTe88+yTfKWn/B612lV8SsBzxRzGhDkp29RshQzJVbU49eFdTPSc7/oyaK5W24Pthel6wnkHNbUG86payhM7UrkrEVIpvf989/3Nq+Iej9hxAL/6e7J+2u934Y+Dyvf8ToI/Gvwh8/xs=);lineShape=1;" vertex="1" parent="1">
                    <mxGeometry x="818.81005903806" y="244.8712745414973" width="14.995851323128363" height="11.911766168326722" as="geometry"/>
                </mxCell>
                <mxCell id="52" value="" style="shape=stencil(lVfbchshDP2afdUgBAKe0/Q/MhOn3qlrZxz39veVu7PbSI2FecNrHdDl6AgmenjbP73uphjeLufT193P+fmyn+jTFON83O/O80VWEz1O9PByOu++nE/fj8/L79enq+V19e3047rDrwXXMsR8RcXwe/mSAdvfD58X+8N81PYpKnskyB6AIZECxABMDqBAaBpQIQQXQNolylA9lwrEoAApARY3hqpPyBGq55IAdNCMEJLvkj6BKxQPIDnRgJKB2QVwVYAageNtAIawpn1FtATRD4L0EZKHUG8DaluzuAEKFIcbRaJmDWgQ8DaACahYgFe5JIXQ7HuXhw8RhJCaPYIdAJaV/xtAauPktQCyzVJ0gsaVzJu9NK1ThmBDbgTs7J9W3mz2CNXzh6CYMsuRTr9FXiVl42oDdDKUEJp2qVbIDiBXwDACKGRlrONSZSAcCVqKZLvHT6vQrJgT/LoJzYwqdYjRROXSCPNEUshQ1ae2qFw21PCbR4SXB/uT16TcKQHSP40swBMZDOvIvFPG4n8e+Tr5oRA7+48KN9oB2hsN0DRTO7MnQtH2neFGVsA601Ps9f6d8Rzt2OnM/2hHZ+eCEaHp+nZuMHKD0vF2rkgJsvancwdLUEbueGyHLEHzxr5tFym3QwZkQG2PUByyifdmPAU3+STeZmNP3sSXbFp7r1hZNJMH7FnSOeKP9JKRdT/eSlDLQD5lDAXDNrdebav+nXQYf1F07GXx7/nyMh8Oy+vn/f/2uSOflqcSPf4B);lineShape=1;" vertex="1" parent="1">
                    <mxGeometry x="828.9316646951565" y="236.95914611101534" width="4.543042679999417" height="39.354264279380004" as="geometry"/>
                </mxCell>
                <mxCell id="53" value="" style="shape=stencil(rVjZbhsxDPwavxLURUnPafofAeI0RtM4cNzr78utofWS6522QN8cR+PlMRyOdpfu3p8f3va7yO/n0/Hz/vvh8fy8Sx92MR5en/enw1k/7dL9Lt09HU/7T6fj19fHy99vD9PJ6dOX47fpF35ccMLUZEJF/nn5JgSq/PubjxfAy+F1ASiZSreASFwAgEmCBTRKGQKqBcRGjAHNAlKjnAAgULJJ50axbgNypMwWIDDpXEmqBQSKqEqFerQ5COW2DZBKxSUdR91uAmqnxh6AytqVCMUCCgkIqQt1V1ZtJXqChmS5pHXroA+BmdgmoYVrKKY2yj4AkigiQKZu61oZ1rV1EptE1STABDXtky1T05kCdK2ZcjaAzhQAQLInk2aVOmQf2xx6pQCqlMsqpEYVhDSxOVlApxq3AbGOvs6ycW3+bQT7mZseAbJmyrbTTWVD0HnHvSaUAFuZoi2q9jmC31eFsCVSpiSgGXEM13xehRCJEokdBZUERFShWv15QZNArfp4GJwPPCgzAwJUVd00QXyFBLAupFXL5vW1BQiWddpjNP0akriQ2ijbbUCg4maTqQBAHz2dzwfYtbo6ryGi7em3rZ5HBiCtpkzXCJAKjXYlXg3Ew15OVWAD6IByzDWgwnh4/NqCEh2Qjn09lXPovHLUxR+GDmzUszvGaYSgPuLznaYSzEDzjL4aga2pDMUHhAg0GcbsK8RI5+KQ5RmQxtL9TwAZFFuMcQBN0KkpTijmb253bSbNAoDanNNqGwhFsAAnk+qIkYchuw3oY7ss+oBcrYhPuuIlXldip9YEmalJz61YqDXJIKS2sjpqTeATVkswN+hcqjqXledET1Cj7XLQJ6ABKvM8zjlEaFxK8iNdZBR6y325Jwi2RmmWxEVIGQyQ2rViAcrfBth6va3Ml4UELzwKENs4Vc4Okp5ysGzVZR1RDtoHu2kLPK9XOndRZXgZ0Ztw9OfRfUp75MYNN02Cv4n8wfUnf9Vh6HVkNWsB2k0p3i/HoVBb8uI2rVoHlK+sJhMSYpIvNwXQjuv5aPOtUE81X8efTgxGQOvpnFRg6Fy0YaV6QEcMil7hdfdm1OJ/fbvzFwD9cH2Z9HR4ebm8i1r+37980q8uL67S/S8=);lineShape=1;" vertex="1" parent="1">
                    <mxGeometry x="834.9811987257933" y="242.8499053638625" width="36.62091255452174" height="36.755641641359944" as="geometry"/>
                </mxCell>
                <mxCell id="54" value="" style="shape=stencil(fZbdcgIhDIWfZm8zQAg/17Z9j85U606tdqz9e/tmZ0c0uJ47xP0I5JwEBl59bp8/1kNwn6fj4W39M76ctgM/DCGM++36OJ50NPDjwKvN4bh+PR6+9i/z74/n6ctp9H74nlb4nbmSKZeJCu5vngmZ6jzzNAO7cX8FVKEsBuBKrgKg9oAE8gkCbLeUhEoEQKSUDZDLeWYRKIl8MEDRmHwfyBrBG6Amyu4+kDxxMoB3jhwgYu7TVAsVkFcWCs4CTBEoF4RctKeOxHIf8IXYpikHikAIf+MNUW94AGSSaoAoFIE3AlOyeWU+p2E5S9yfQZcQILVuQOwZdJNoS9Ls3wA5u2XZTIHECqeJ9kDpSaauRiNVcAY1QhdBzeLBli5WazpkSsBLV25uRaqWRyFawTQzRRIQYirJzq5atkBqLfouwqUxLBepthWb10vrWZY6UOAeyKCCtDV625mm9gmUC4Wc3VLJMMIE1BsA2FW9JraVlQB7n3c9oMKhCLEvIM1zBPZ25/umNQ1tVEC2G+fFCC8g398O2hNQuQlVu752DBfA+q0ptnqO5JFmeuIuo9DY7KjY71UxdJV4EntifPWorW++R/dC4t7V3DlIB5cHx2bc7eb3yvX//QNFp+bHDT/+Aw==);lineShape=1;" vertex="1" parent="1">
                    <mxGeometry x="882.0711468776321" y="236.87531245851915" width="4.672539772115215" height="4.665236216357698" as="geometry"/>
                </mxCell>
                <mxCell id="55" value="" style="shape=stencil(lVfLctswDPwaXzEkAb7OafofmYlTe+rGGcd9/X2haqgakLVtb7KENYgFsAB3/PB+eHrb71J4v17On/ffj8/Xw44/7FI6vh72l+NVn3b8uOOHl/Nl/+ly/vr6PP9+e5osp6cv52/TP/yYcalT5gmVws/5DQfK9febjzPgdHy9BRRqDlApBQiQZADSiJGHSqEbQO7Esg2QSN0CSqbQtgFZfAylUQUeSidpBlCZuABAplKsh0gNHSlTzTboSAl4EE2To5UHb/dp7ZSsB84kKHGJqvWQ2nhzFxC1ECytmkpGgETZ0poEFt8qhBSoApIqZVsYsVACWahU7XlipAIo6tSCLQtKKF4mcb0D/z5qo9j/jxRRxpi6tQ8UkH2nws5e4rY9C/Vo+Yd0cqdYbVEPAjYb2dqrOoHzTBVvKzQKRQTQ89oAIm58jaC4HkjUQYq1p1xbqv4heVS5ZVfTDTa+tkgRD2gAoCE6edQy7RkAZFTNAsiDhvuAQLF5liIAqH8bgkpHA3mrowwWe6YIItCIbV03fP5Ewaq1cgykVFUk2zqNVJH0rgZUwCOz+mEQcN/XUcT/Zl+S1y0FQP7FbwnqEiagj8+L0hWKoPV79VIkmTqq6hB8leZCBahR71QtQKd+xgCxZVd1EQF51iDE5qGHMbHu01R8DOqzA5rKKtM3PGztOm6G9ALPpJLnxr4G0QBgmjq2ezSsingdCrrY85C0u/arRNcAF5ewmjoF5jn6WhWBDInfEhifp41mX5qHx5zb4EecXi/6cf/8kdiN5YD3LvZ7V+xDAbcEz1GkQyWBEPRzax4AVxFdtFaTGXnQLMS+igFfXGS1PKJrRVoOcDPVAqB12lbcZBYYNIdVZZRRu1sAF7QeEu7w/329+ztAH/7cJl+Op9N8Gb397m+f+mq+ufLjLw==);lineShape=1;" vertex="1" parent="1">
                    <mxGeometry x="833.6604191681836" y="167.69639002139002" width="18.777646895862063" height="23.11350752932026" as="geometry"/>
                </mxCell>
                <mxCell id="56" value="" style="shape=stencil(rVfLbttADPwaX4kl931O0/8IEKcx6tqBk/Tx96UgrCLS1rQFepOtHXGXQ85wd/Hu9fnhZb+T8Pp2OX/d/zg8vj3v4qedyOH0vL8c3vRpF+938e7pfNl/uZzfT4/z75eHaeX09O38ffrCzxmXCmWeUBJ+zf9wpDT/83kGHA+nFSBWKs0CMoW0DZBENVtAJ+kgQiMOBiCBpG0DslDpHhBkG1AKNRuBK8W4DaiRerIRMjWwpcaULSAmKgECguUhRaoFAAJlm9ZcKPwhQjGA0uChmxBHA6idGBDXEmVbGq1BHhTQbYTOxBUAIhV7hp5IUIRA3aa1K/cZMF2o27T2NorlNkBIXIQOI5RK3DyggwhFKHa/pQ46Li+8LoBKATVQppR8WjPYUk6D1xVxCUVIPksNF99HMS+ATBFFUFFxABlU3k6r6ly1AIYyM7WLLb6pB0GLqmrE6gGw+Cr16s/AqLzZi7G2lIAI+podDxW3aPY89IC3pBtwLRpJkMwwddcPBRpKbaMQVv0gCBBH1lcdV4DHKdMOwCFAcdVi6uJDRKBkWq7ZUq09WoG4akOIO4R2LSBCWy66Lcnw+v8ECP4MVbcEqE7qH/YMqm0VAdr43uKKyhw4tALEauU0ryAewrDlxdnT0Oct4urVwBQAcVp9wYqrEo08rnmprMPDbq5fleZqIkOmqJXmp5mCXbQMg1qyqpWBzpy9A8Uy5HnL41ySYoNyr0S37gENiLHOX3wVAam3sPe4qZQAEVqrVvii6j/QYh5vVywE8P1rmrGrlzE/LlI/XP72drQqbEbT6NbbCZVRM8t+oOIlHiI91gdYEjr/Nr8eSbDeZJJfj6bV6woKsC/z1fzMVNGMJP6SIcMjNmcqp3XYQZKfhfOYHjbXO7WG5TztxxkO5Gs6r80/h7HDrYS6WYR5ULLFWHcMaExkH/96uf0LgD583KWfDsfjfBVfv/d3b/1rvrfH+98=);lineShape=1;" vertex="1" parent="1">
                    <mxGeometry x="674.7179929635042" y="307.89712763743114" width="19.34065406890477" height="30.883942070592184" as="geometry"/>
                </mxCell>
                <mxCell id="58" value="" style="shape=stencil(nVfLctswDPwaXzEA3zyn7X9kJk7jaRpnnPT194XqoSJA1ibuTZa1JLFYAMtdvHl5uH3e7wK/vJ6O3/a/DnevD7v4aRfC4elhfzq86tMuft7Fm/vjaf/1dPzxdHf+/Xw7fTk9fT/+nFb4fcZJJ5EJFfjP25v8782XM+Dx8GQBuRtAilTSNiAE4mYAuVApAFApWEAVKmEbEAs1C2gK4G1AaiTRAphy3AaUSGKDrpl63wbUQK0aQClwh1rHejNLgWoDAA0x2zzonoDWwlRspmMYub/MUqdoASFTArTGRoEtQI8EEqfrFRt0iMSAJZWG05I06iCGUEiaPxKSRkjEwQfdkLyZmtVSUBqANKRQTxbQBw2XASqE4gEdxNCork7UgJQyBatVZa2iAl2tH6miljFUM3/PJPWK75WyCAhanUcZa4Afjdfy2amC5Vd0Viro9Kt04Xa31kOBdbwWXBvxfFDRwlSvqhmJ1EF+p6q0ApKKR0IZ/XxWhMDOojG4djq9QTuIb6d6yAxqQOaiXRRZRKJOJOuqRHnm0do+uIOKPl4TQqSUVxyBZipU+ZokCAWr03eyfPF7LKNmAcoYmuJC0X+P4s3JExphHZROyVkjoQwALY3GsMhAAvOvy0joYiSjXtFVAXYHNV8CdhCeOVy4rwRU1PVvy5LygPpLZ185tY8lLtMkQzZzA2vD8W1ZHWfXujKN7Bp7u9bV8WFD6Eztgrgtz+ly3XWKoLFQx8yeAQzLX1m3PbJqQwAbZGLLau6Dto2p6bKQEnSoKyFNUxyUP49rxMKqMdAR++rXwcgg3uDj1Y6MfFf0CRNsTrP311r9yOXUMbUX3yP+dR7ICsCgveh5XWUqAPkimRO6CDmgmVZ8R9XJnxGgeq8jeZTe1ph1Q0eXYAT4j/vpewB9eLsO3x8eH8+36eX//vqsr85X7/j5Lw==);lineShape=1;" vertex="1" parent="1">
                    <mxGeometry x="712.0905321527205" y="312.1938255475711" width="22.109799004294928" height="24.466475770518628" as="geometry"/>
                </mxCell>
                <mxCell id="59" value="" style="shape=stencil(fZbdcgIhDIWfZm8zQAg/17Z9j85U606tdqz9e/tmZ0c0uJ47xP0I5JwEBl59bp8/1kNwn6fj4W39M76ctgM/DCGM++36OJ50NPDjwKvN4bh+PR6+9i/z74/n6ctp9H74nlb4nbmSKZeJCu5vngmZ6jzzNAO7cX8FVKEsBuBKrgKg9oAE8gkCbLeUhEoEQKSUDZDLeWYRKIl8MEDRmHwfyBrBG6Amyu4+kDxxMoB3jhwgYu7TVAsVkFcWCs4CTBEoF4RctKeOxHIf8IXYpikHikAIf+MNUW94AGSSaoAoFIE3AlOyeWU+p2E5S9yfQZcQILVuQOwZdJNoS9Ls3wA5u2XZTIHECqeJ9kDpSaauRiNVcAY1QhdBzeLBli5WazpkSsBLV25uRaqWRyFawTQzRRIQYirJzq5atkBqLfouwqUxLBepthWb10vrWZY6UOAeyKCCtDV625mm9gmUC4Wc3VLJMMIE1BsA2FW9JraVlQB7n3c9oMKhCLEvIM1zBPZ25/umNQ1tVEC2G+fFCC8g398O2hNQuQlVu752DBfA+q0ptnqO5JFmeuIuo9DY7KjY71UxdJV4EntifPWorW++R/dC4t7V3DlIB5cHx2bc7eb3yvX//QNFp+bHDT/+Aw==);lineShape=1;" vertex="1" parent="1">
                    <mxGeometry x="739.0711468776321" y="299.8753124585194" width="4.672539772115215" height="4.665236216357243" as="geometry"/>
                </mxCell>
                <mxCell id="63" value="" style="shape=stencil(lZzZ0hy3DYWfRrcs7su147yHqyzHqjiWS1a2tw8YuXumD2a+Lt9J8xPdJAgCBwdgfyjf/f7zD799/JDj71+/fP77x39/+vHrzx/KXz7k/OnXnz9++fTV/vWhfP+hfPfT5y8f//bl8z9//fHb/3/7YY/c//rH53/tJ/znm9yaIcYtleN/v/1SW4jp/7/89ZvAL59+fRYYYc2rQAl1osDMV4EcYkeBnC4CZYVeQaCHIQI2yYICf0zgFOi86BaSvKGElUHA/nxVa0nHJF8L5FCvU8orFFJrDLNdBUaIoKW5QrpuXK5hkMAIZVwFcmgwpdlCFYEYGmhpltCuWkoz9AgCSd+QepiwhmFKXFcB20owjWHGd1VrsknCxg17Xr0KpLDAvEc5TO0UiKHCokcM67qGGdZ4P74vPdIjdNiFPkK6ju84n95CuY63H0ClvYRerg7g2MXX47M7nWGAQvtpZI/xCZ7fpnqwHAbop41jeY/xfxjV6/FN15tDoueXMK/j0+E8Xo83/cghQP20GEqW8R32q87QuoxvDcbbERSDDhX0swOMPr/SfIqfP3nGasvT+RTQj0WX9afGz5CWjgf9WGypul4cXzWcmX7AA5UcptpDA59okSiKi0P7t0BUVf8L9tfcjcw/4/6auxF/VY4fXo8391FlfAd7sNcv539oPqf6Hv4tw35ZkEtX/Xf0PxbjxnW8xRzQfxpq/xP9j4XEeJ3/Co3G1zCv/tAC0gCFWkSUBeyQRys2Bytx3lw0HDF73hATrSHTG8ymxYe2A+68FnCbZmpDGHtAn3P8ONzMa6hynKlz/AqZgIeu2MwQgYpDcxmtqKtTt1NTcbw4aTs1DebTDhs7xzdEHTWsq5HaihqYRFWnbhrm52eHpwdYUNEgsN0k2ENRezA3TPosx+4/ZRCTvK7qpzT0Kjn0qz1b2KH9ygfGO8dPXK9hmKt9FtZnck43YS5gJ/5qPxb2E3mt0K/7W+uxg2/Gt6t+DLaQ/ZwY5hw/j3To3fjreg12JYhiNv6qz5YwiiUFuQYbyT/Y0+T5fH6TZukGY0mfWYNM4yiWFUQbDCeUknV/2zrC1JvzJQGgJwwxRUGNpR20v+XIM8/xZ/L6xv9IktTrYYFvxo+rP7E0i1JhwyQynu25uecPfH7X/erzsKg34+W8WxpKIGIcOcUJguKRlr2Jp+lqDyMfife7+HvdL8u7M7FOut5R0R6W+ufRED8Y4Gjygo5p1YY0Vw80xp2AHPkxeUpZcdyMiHQNtcmiZ2Kn23TXZsHcMHU1i3kChbfg+KrW2diPzpCvB3P2wxW/FliKFOc4zt7bfED4mnls5buEQ7CKCUyw1ZzVec11hP/XAuU462dKEHEfNty6uouVDgDwWsD5l8WshDkMYT2WAVhOK8UDmwDxl+YCpiy6oMuwM61vKIhZDCKmrAJE3RhGlNR4VeYaqjKkJjBvyAaZUmO24fQRTwKT6JioydzqR6x7x98I37AJeyaI5EyvgX6pDg22JkAVA8NyQqnusgZFW8cxrnmUBF4LJCVlTIDizwPOPQmQaRieE0dmAsQTNUvp3Bpo4wzRza4CEfZhQ7SsaiXyvMcXAoSae9K6itkS1SQMpUkUNfOmyo3BNGFbVkOvsXGamHfFTN+AmvDP5jUIOvephZiV0Rlv6CW2lLDkNpJmdxZQ6DwY+GouxlF9y9CU5AsWRQk/P+DUU5zOVOrpaq030MHQkUDoeVPqWZqTzHwcqdcYNOmJM4BFi7bnZaEGFxYmN5wSzMdqnY5cNkVTQDE4tRwwpsR8unLSNhZ6g+PTzRxx0cvlPgsZUQM7coB28kPJgMu27ZQPUKsdSHEC5ngGlaCL8hGdy4bmVISwMedJMHQ1DSiWcRNINAFJBywAkJt5xP0nzoCqsTvui0DFJHFHA2EZ+IiaQBHawNJ6mtIZoJ54G+K11nDE08ITt/sfhAmbGB9edFgMpDK2gEyp361hODKs8hskHTABSmmWqwEZqKMi03LofqNAMo2pVVATIOiwXBS9YQzXdGuobN5LgW6tyFmZgFjrro3SiVvKgm8t0RqW2+nGvTQOwtWb1pilhQsTwI1bCh1q59YYR82YALrKpWF3HyDeaSHP60DMt22pqgBu3FT4Uzum+C+6pjryh/vERRUgVLnPtOzDjfcejqJvSCJsv+QEqCi3UyR/RElL09kSp8cmIAzWncB6NaUb83aOLLN5/zmBFKPr2bvpd1vONtbdnKTPyqIiVkfXgc1PgXSY19uNkEBdOKJMZQYNO6AxmU5EoGFfkwlIn4ZlzJXhjGQcbbAn65pmNS4Kb+7m+oYe2VyrZk09Y9ln41Dh7StHFMc9Wj6LAklP0M5nScCV5kfE0qTlA1KrtgTiprNRyXsuDljqOeQNFfNjy5q0vME8xXT1ojGx48Eyv3jd6bGwoGzJqLRp2S+FBKKeh3l2Gr3Lj2VKtiqqiQ+HpSeTM6bE7Ll4mlJV8D0nNsOYIVTR0uIO06zOeHHjgBmzcvFMfFtyKy2pdmjJL1lyO4Xz4tqjnWAJQYuLKJYNS8q+GMNZNqxTGjylfFQzn8lKeoMrwJvAJLVGRxovPA/mq5Wh5apLm474XniA2nCdWwsbq5rrS38CB+9YYzmj+xXE6WZHla/DkbxjvrXGsbgyHRVML259t/xZWeOFqd8D/j/Zxk0FQniHza1TUSS70tHEfahR+0tuDkSZirDWQPxTultDx40rVVvKFldGS3Yb13EfStQ8a3NO1KS0tDJ6U83abQKOjCdonMcLAayMdldQKNwOW1/Q/RQVc3HmnZHO2b0ySwWwl8s1N22QRmuIGncXE9m7aH5dg4VRChBpav/OZPedXBVlV9mpp7QrYTS5qpjakT+fAsySperK8g17ZnYjrfQicDaasga5edtIq/iHwYYJSJ/iRokkEJX5fuDGdwJaH1icoig4GZPrCRqwdkkEnj8V8RnKpPspQzsdRkPcMFx546zcvgYminwGZ8Zd7xNZ9kN1r5NXfUqvBlXXNfcxQEqdY64ubfkecfZF8YLhV/LArpPW4Cv282snWOf7Sq4GZxkxnjG9iNcztywpt2LQlWBkctezIiLhqPa5LzzBeh0SaVxCjIcDeaJJ6H5TdDWciuuNrrO04HlxbNhNJ60fH5G7jY7V50zE+bfKjX6O7tiUJOtfigblZv5y3mvCkphrVCwLu6CiNhuUgXAlKvNXOpYZk4bhfUEKx0tFrxRcrwuRJTFkVHs2WEs3F7JSchbRsJVO55MHkuDF3QTpN53Ssr8WEagU4Zo+MxdtHQra3Yd4s0PsYWuM7ldq5Twn7rfRtH2fOLpPqqTUBrPEALmbRBPJ9ely9o73Mae7ntUwLVuqT8Ol5J/3bS8RKKjQlJwA9yPZn4Uot3fihbGqmIabyTdUF9SKyXTqakMDIVxyTA6Xv9PSts3KOWLUWkXFu/y+AZg7yHJRTJwRo+ezSHxuGGegQ/MSvnyRHaUZsVpkHlZ8UETIt/tsp4wniy5ViYl4JIvvuBWhxpl181eGb8avgwZ/Gg8upSa9ch6xMW1fqVb9U+78aK14jKeC+i5u6/OJqzJEJX0NfBGhRW2GigjpW1YfzTmqIc6l+4sUZtNW84i1mDb8FXvsJl7KVfMVe8sQxH64UbFnzQEy8/+ORS78SQd3O6AiqdCH2kPj5y9XxcR2veGueDN3NFy3Hvd8jeYuPN804LomsZTR4sZSj54qlzCzgx2NL1w5OjgNDMK7P1cWvZDdnY6sfdxCfI1sosKCHSdJIGlu8rjX9lqg6Pdi9kUyahqor+4Nc9NkltBduBw+jj+fAnzTbE13OAf3MUyl8Cz+EJzYDVbSkcUU0lr6SSeLWPj9pKVd+JU9zH6D6zW66VvTxp6b5qSlG1eZR1quXljZi62l5m0C1DSwXGqwu/u4X2q4NaB5T3dt+lagujfcTCm7NdwsWu4U3qnVnYe7jZuuf/C2b+1PfkTtXsD+8fhm20+ffvnl2yffnv+u33izn759H658/z8=);lineShape=1;" vertex="1" parent="1">
                    <mxGeometry x="559.5031611461513" y="67.43291976690011" width="251.0973413621034" height="232.32168179447035" as="geometry"/>
                </mxCell>
                <mxCell id="66" value="" style="shape=stencil(hVfZctswDPwav2IIggf4nKb/kZk4taeunXHc6+8L1UNVhKztmyxjRRyLBbiTp4/Dy/t+F8PH7Xr5uv95fL0ddvJpF+PxfNhfjzd72snzTp7eLtf9l+vl+/n1/vv9ZbKcnr5dfkxf+HXHKbU2gWL4fX9RAtXw983nu/3peF7Ys1IOI4CpyDZAmFIcAUI5bgMSU+MRUCiUbUBmyg7QSOo2wEJseQBUoZC2ATX0v2dAoYoASlIGgAZKIAYtJDICEkV8QlF/Qs4A0CiKz5IigPYkdkCenXwMqFTHOiSrAwNAIR65JJZWBYBEPLpk/EXkq0xxdCkaWRoACMWRGpxJkUuB4thAnKgAehelMLrEsZfyMaD0780AOxMDnEuVCih0qZ7dmQJqHyUdyxZJQcRWBBmpysSoaMn3c+hl3+KdVmeP9ELZ084kD3BChbS4eCOyz94+UQJtYL3vBY8ayKfZ65jPRhnFm6mO+THGwQQJVcc4azzAIJOe5gCZCur86tWLC8ypcUKiBzAmXVy5hABlJagsJMAla7Pm0sr4hNLbdpZsyqAPpsYf7XMnylYEPIaMB61JV3JaB5XLtDGNE8Q+AFaFaUZmZx+Avc5tu/g+Zl3w30f2LXjd4tqV6TFAfMGskxtQopb9riMZLhbNHBhdSiZmgHRNPSDnnoXHgOYHWokwaA5zlRaLQgW8sCNcnTXCud/W21GjgvLKXl8scQ1JcPQSvAjrMVlj3zzmI6xdgUiW5FXVvERj0LYn125qQYD+n6jgAAnqtpFNxzTZ0ocAthi4QljPolFloituc8aTofjRPG3aoNJGZheBLUeg0CbRbjFn2KErIpkINpCh4Hk09QJIkG1mrncUzrV1r5UuUlvfd/5k2GpzdIvLF5ohsVdnoRZoOZXV1Yvh9TH7qWz2Ac0cCmNX2t0N+dNW+cTX2f9ff+3h39357Xg63a/ey//9Xdte3e/p8vwH);lineShape=1;" vertex="1" parent="1">
                    <mxGeometry x="756.9806452245657" y="90.18056620206426" width="28.020071293015917" height="35.61455701630882" as="geometry"/>
                </mxCell>
                <mxCell id="67" value="" style="shape=stencil(lVjZbhsxDPwavxKSKOp4TtP/CBCnNurGgeNef19uDckWlR0jb86Gs+IxJEe74Yf33dPbdhPc+/l0/L79vX8+7zb8ZRPC/nW3Pe3P+mvDjxt+eDmett9Ox5+vz5e/354Wy+XXj+Ov5Q1/LrhAkhZQcH8vDxyx/H/w9WJ+2L/emAtxHswjlbJu7h0VP9hnygzsIwU32BcKwB1fyImxR/5ouG70p1J0wD6RC8a+BGBfKYu1T+v2zOStP1KBfWrpuNoHD+z7v6/5yXndPgbyNv8M/I9a/pEPmSqyz5SyfT/IpzA5NvFWUC8RynWwVwZWQDgplMaAfYAZSkw5joDcavgxoGewAbTFCoghB0oGoFkALuVEaUyS0tYDQHEURlYvZQBZKmxpzY4iqFvJ7X0doIMGNGZ1LesdoGeCtFa2k4UFA4ptNSVvxIA6Bh0rMShcrS3EBpBEEQVdGzcbIEmbf6uA8YQcSSIEZNP/TAIqrQBvBoxvZFnLkqF3Ta0yHwNyY04HqJPoBE1itICEYhASb10S0A81tqXUAdqiKK2RfLVpdWDuKVtNpbVwDgWtgPGEFCmBzaAumc2s5HMoBrGrMCrhUZakrbKbBoLUSG1XdkCggGLIbTB2ABMjQGk56YCMAX3d9ywxFAwKKGM/JF2RUPE4cuMR2cNZuRwxckPnc8JNbVquFKgyljSZDtI5gzoo2yWnZ6IVpKU24/smD6tsMk2q0gHNjU8DvO05fZJAmpYsGvGD1VWR1vQdkKD8Kb5N65u5UQE3crYDX7mBhqWOFT+6pK9Agya7RucOwKNMV5SYpaXcAD2XnNVkqqGQFlARJ2PPqUpDlRaNYUyrvqKCE2bZqmMgIt066eJFmYKLySy8JcCmnpW9AqC0n64O4u/eTaIFIC0wX37EQ7Wx3K7c5BIalmU6AQet90M/AdDAV/mfZpdA4SZ1spALJEn1l9lxCd6YvC1CdFCbqPoa7ZVZiHjOzjAlVoT2RlypUEcTaRoXenVIwH9nL3CB4YVs2p6+wj3ibGMuFIHxslGfd9w3m1Ngj3m7EMIdczNKsewMTdBdzVFqPvlp5665/rh+RXrZHw6Xj1C3/7dfnfTR5YsVP/4D);lineShape=1;" vertex="1" parent="1">
                    <mxGeometry x="84.20941657384606" y="181.00360748686057" width="92.6833794726283" height="9.757305549587954" as="geometry"/>
                </mxCell>
                <mxCell id="68" value="" style="shape=stencil(fZbdcgIhDIWfZm8zQAg/17Z9j85U606tdqz9e/tmZ0c0uJ47xP0I5JwEBl59bp8/1kNwn6fj4W39M76ctgM/DCGM++36OJ50NPDjwKvN4bh+PR6+9i/z74/n6ctp9H74nlb4nbmSKZeJCu5vngmZ6jzzNAO7cX8FVKEsBuBKrgKg9oAE8gkCbLeUhEoEQKSUDZDLeWYRKIl8MEDRmHwfyBrBG6Amyu4+kDxxMoB3jhwgYu7TVAsVkFcWCs4CTBEoF4RctKeOxHIf8IXYpikHikAIf+MNUW94AGSSaoAoFIE3AlOyeWU+p2E5S9yfQZcQILVuQOwZdJNoS9Ls3wA5u2XZTIHECqeJ9kDpSaauRiNVcAY1QhdBzeLBli5WazpkSsBLV25uRaqWRyFawTQzRRIQYirJzq5atkBqLfouwqUxLBepthWb10vrWZY6UOAeyKCCtDV625mm9gmUC4Wc3VLJMMIE1BsA2FW9JraVlQB7n3c9oMKhCLEvIM1zBPZ25/umNQ1tVEC2G+fFCC8g398O2hNQuQlVu752DBfA+q0ptnqO5JFmeuIuo9DY7KjY71UxdJV4EntifPWorW++R/dC4t7V3DlIB5cHx2bc7eb3yvX//QNFp+bHDT/+Aw==);lineShape=1;" vertex="1" parent="1">
                    <mxGeometry x="172.07114687763192" y="147.87531245851915" width="4.672539772115442" height="4.665236216357698" as="geometry"/>
                </mxCell>
                <mxCell id="70" value="" style="shape=stencil(lVjLctswDPwaXzEEwQdwTtv/yEycxtM0zjjp6+8L1ZUjQtZmclMcLAUS2MVSO7l5ebh93u9yenk9Hb/tfx3uXh928mmX8+HpYX86vPrTTj7v5Ob+eNp/PR1/PN2d/36+nSKnp+/Hn9MKv884q1RtQuX05/8vmZL8++XLGfB4eFoCCjUeAJqoNgAQ6nkAdKGcASCRjim1SiltA7RRGQH1HQBTGlMqhaRuA7qvVwaAFMq2DWhKrQ2AXKl0AMgkfQCwUdJtgG+xj2/gQgxSKkoljZUmBRkVoTRm5AuAxhAjTiE+gzMViUUwaqBovhzruOFMGZxQ9k6VEdCoFgBg4lA0XGXupKEtMjUEqPGMSqKOADI3wQWgZKAKzJGetZECenKau2bBNgZ9odTris4wvoxn5HqB1jfqoU0Z9umlay7xBbaF02ossnlXILEgHvM3JQHy1chCvFEF8S7Aoa1Tgurl20vxBR0Rh6zGDTRAAyZbHZABIjOJxAIoyMdZFuIzFYbrjwfkAwJNKJ9f4361k4ECrCjm8wSx/jIqLvGVBOTvQi0xnsH5dEoW4xtgsMtsi/kbqK/FhlYlBflblFEnZMKEDPUSKpCQOTiQCvtH47S3Th3k0+Nkdb5ksH6Ls97jkeT6mKkxXsF+hWS1PjrPPI/RxX4riOdZzhbnWSF/Oazvgg75+LH4i5otBgDiV4r59wwNpuvVGD/ZRcj3MvbDNCGR04quwEewgH7wfhvzEdxvPoFDg2bccG4KbJzxk0YiRdfY0m6dCjgir0HoaUwxP9M+vqDMInw93iIHeBal6yWr0XTgEeknXjTEZ7C+e10NZhp6muIaN3pXgc6y9nm5t/M0dBtYzRivOaMLCkdR9+sDGtq9R9a8GaPrqruyHWKQxtOUHlOqCc49lyke27r5TRDswX1MCV3K8+y5DvAtjm/oBnkwKX+YNWk+tw0ur9Rusq/oPm3xtut2qKPxbat5I7OF3ALI2iGjyulsuJeODqWkK4tW4V3UJ5jWCECa6gDhCECMds+qHPcAXVEjaRGA7rueQOwNmVVqC9BXxhfp/Me/zbwP8Ie3T0H3h8fH85ek5f/jpyP/6fzZST7/BQ==);lineShape=1;" vertex="1" parent="1">
                    <mxGeometry x="136.50599237806546" y="151.65765953485243" width="67.18365435897363" height="38.638995461497416" as="geometry"/>
                </mxCell>
                <mxCell id="74" value="" style="shape=stencil(lZbbUuMwDIafJrca2bJs65rDe3SGQjOUlimF3X37Vcm41Goi4C5188U6/PrtgW7eNqvX9RDx7XjYP6//jA/HzUC3Q4zjbrM+jEd9GuhuoJvH/WH9dNi/7x6m36+r05unp5f9x+kLfycuF8hyoiL+m1YCAuPnyv0EbMfdBVACUO2AWIDjMlARhDqAEQotAyKQsAMqQxAXyKkHBGJ2AAbJHSAEITk5VCjcAxmSk0O5BnSlLgPaB+yrpFkJLwOcoKIFalgGEgElGxKVZYAIqqkStz1nARUCmaRjW5kHEqReS1ro5O3AwKUHUstqPgeE1Mtb5ZidKlFt2mxA0QlxQkrShHAGGLIjjRwg9WUt2kpH3oWAq90hOY3TmjDaHMhJWtWPV1WKHqBtMhOnYnFCCoiAZqgLiLfFuexnMQUQpxH6t8la5erNaFVxmpGrEBwnU+tDo2+B4oTEFWpfpos6zKspg4iNSRxxULZ6VWcqTieiNKe78D52nElnDoN11+LM3Dzg2ICadV9W1oicxqmR9Y3WL6CT8pX0QgR0EkA70QLkyCJaI9YGOK9rh/tpTu1AnZ+c2L52zrbN3vz7cnWgt3YsmbbxYITgxENsD9tvFE02HnTNi0Pb/it+9t5Xn+jVQxA9+432ZGYg566QMwRj11C97//2QvUDQB++7m+P43Y7Xf8u/7f3PV2a7op09x8=);lineShape=1;" vertex="1" parent="1">
                    <mxGeometry x="157.11166423731515" y="197.90654472246547" width="6.179341090796925" height="18.575839246728947" as="geometry"/>
                </mxCell>
                <mxCell id="75" value="" style="shape=stencil(lVhJcttADHyNrqiZwaxnx/mHqyzHqjiWy3a236cZZSQBErviG0WxB1ujAXKjN2+Pdy/bTQpv76/7r9ufu/v3x41+2qS0e37cvu7ecbXR243ePOxft19e99+f7w+/X+6WJ5erb/sfywm/DrgUpemCSuH3vzsqNf+98/kAeNo9nwGiyqgWUCXEdUAa0qMFFOnEQg6i1iWNEsI6oCSJ1iVtkso6oGZJ2QCyShvrgFa8S7nNqK4CepGaDKAg0cSlMWbWJ6CqKHEphjCTMhFtSOvERJBcDAB3Eot6iFqfBirH8tql2KhHl15J5ao0G8NZWNfJESU3ayJLJ1GDO86nrhKJBdB52Kgb+EXSlPL8+1jrQWNAhzUbQ66SEwEUGbZymmdUaz03rAU4OUghFHWyBI9IayOAMT0+ApBokqWlq22WmlTCpZykWmqgaUnHZVDTUYmfj4azKUIzKKGq+vMDpVFps99P/iTC0xol2oRCh4k/kIfiBEMGoQQ0z5EuhhnRGqD2C0oQDsGj5Cz0ecR1QPDdjxxRuWhet0GKwAA6a3o2exgArHBVgAWm26CdOoDOabTGa+8SdJkBwDNXh6NCrbWm67SYpn6sAYaTSEolaHCzZSiU2jnPTjyGTEdb7n7uBClEizD/nRbxGYKpk7t7ntUYPA3d+d9Ya6bJ4lN+GikYOq3YPhhzyK09787HUlaINn4YUMBq28qqdMqib4JbkGCBsbpLdhwqdAZif3Lqgm0jkayiyq5vWpu9ej1LbXp8BFTKi9ZnEs9cGkzwuq9DhRyxGIpvZXAxst35QoOL8sGPXrYxoDKRkO/UK0dAotTAmCk2BmznjN4Xey2mAtO7JtFGAItsU4B8FkcMUfZ8v1jNqT9LhtSdH1hG0+Xzle+bfqOlNF3ez/ySTRO0+OsmTqS8BsCv8UonDgDdbY+Vr8zNywWqEogGp4siR0w5FnSZ70JntCvMgnpaoJBsofrwq/Z/AHBxerN/2D09HT4MnP/vvwTg1uErgt7+AQ==);lineShape=1;" vertex="1" parent="1">
                    <mxGeometry x="176.5704545143726" y="198.19603979464955" width="24.188211705679578" height="24.579179568567497" as="geometry"/>
                </mxCell>
                <mxCell id="76" value="" style="shape=stencil(lVfZchpBDPyafVVp7plnx/kPVxkHKgRcmFx/H022BpCW7TJvsKve0dFSa6bw9LF9ed9Mnj/Op+P3ze/d63k7hS+T97vDdnPaneXXFJ6n8PR2PG2+nY4/D6/z//eXbtl//Tj+6l/4M+N8pMAd5fnv/CR4KvX/k68zYL873ABco+g0IFIEAM8WECs1DwCFknYpVSoAEAPlpAC5EYd1QHYUvQKURJzWAaVSaBoQx5n3AZGajiF74gxcWgQtWSq8DkiZmg46VIoRZinqE7yUsq0DhAjZABI1XOnkFieAoF0eRLjEwCPR9wGBfLYnNLcOkLdB21diEEJZfF+IARxKlKK2d+RREWzRegqAvXzf2EtRgL34X5R9pQpI1Kw7CZr39FddL0iIa3BX+wSq1QmkyyWjBXSZfC7rcDPsGXnNJp1MjEeRmV0uEhcIMD3j6pg1ay5l3QJeKoxyFC0l5BMeAdziBCEFyKp47EzVmDwYp5KTmB8C8KDNrUsAUMfsvInZgbaUOrNNaoJtzDpFrsI5lMgbe6EFaMtMScfbeQeIKgJpeZ1Rn3ly2p8IpeBR+yDHa/nD7ieRmmD8d2hqMTnTl4UC6BrRYzOIeluAvmxMxUwW0WMkHHUsNZcQGE5ex2xJVwrUDvGJtU8tjrrfZ4WIo6aFeNlAHXK18nTj5dpWUXlxBNq90mDmBZDgdJFt0Yyj5mCtpbJOz+CaKKBuiCPtl0LUwffPdbPkrYC1ZVFoyRoSBR7NdRmPBZI1UNFllidIQ1yy3SBCXQFXxaOgmScTAUUs49PqoIe7o4+2fQRQsQ6akSExoKXfL1RK0uDQstDsdipDBom/iJiRNbn7IFkTQFtsg2hmdICR5giZ2l0ywibSgrK0uK15fK3oUmvugzyGyFrhzMoZHL7ePXrj/ARAflwvuG+7/X6+H9++txdieTRfpsPzPw==);lineShape=1;" vertex="1" parent="1">
                    <mxGeometry x="210.7157201240525" y="194.2742704386926" width="24.587908986650064" height="20.75400295577583" as="geometry"/>
                </mxCell>
                <mxCell id="77" value="" style="shape=stencil(fZbdcgIhDIWfZm8zQAg/17Z9j85U606tdqz9e/tmZ0c0uJ47xP0I5JwEBl59bp8/1kNwn6fj4W39M76ctgM/DCGM++36OJ50NPDjwKvN4bh+PR6+9i/z74/n6ctp9H74nlb4nbmSKZeJCu5vngmZ6jzzNAO7cX8FVKEsBuBKrgKg9oAE8gkCbLeUhEoEQKSUDZDLeWYRKIl8MEDRmHwfyBrBG6Amyu4+kDxxMoB3jhwgYu7TVAsVkFcWCs4CTBEoF4RctKeOxHIf8IXYpikHikAIf+MNUW94AGSSaoAoFIE3AlOyeWU+p2E5S9yfQZcQILVuQOwZdJNoS9Ls3wA5u2XZTIHECqeJ9kDpSaauRiNVcAY1QhdBzeLBli5WazpkSsBLV25uRaqWRyFawTQzRRIQYirJzq5atkBqLfouwqUxLBepthWb10vrWZY6UOAeyKCCtDV625mm9gmUC4Wc3VLJMMIE1BsA2FW9JraVlQB7n3c9oMKhCLEvIM1zBPZ25/umNQ1tVEC2G+fFCC8g398O2hNQuQlVu752DBfA+q0ptnqO5JFmeuIuo9DY7KjY71UxdJV4EntifPWorW++R/dC4t7V3DlIB5cHx2bc7eb3yvX//QNFp+bHDT/+Aw==);lineShape=1;" vertex="1" parent="1">
                    <mxGeometry x="236.07114687763215" y="193.87531245851937" width="4.672539772115215" height="4.665236216357243" as="geometry"/>
                </mxCell>
                <mxCell id="78" value="&lt;b&gt;&lt;font style=&quot;font-size: 16px;&quot;&gt;Normal Trigonometry&lt;/font&gt;&lt;/b&gt;" style="text;strokeColor=none;align=center;fillColor=none;html=1;verticalAlign=middle;whiteSpace=wrap;rounded=0;" vertex="1" parent="1">
                    <mxGeometry x="57.74" y="376" width="190.26" height="30" as="geometry"/>
                </mxCell>
                <mxCell id="79" value="&lt;b&gt;&lt;font style=&quot;font-size: 16px;&quot;&gt;Flutter Trigonometry&lt;/font&gt;&lt;/b&gt;" style="text;strokeColor=none;align=center;fillColor=none;html=1;verticalAlign=middle;whiteSpace=wrap;rounded=0;" vertex="1" parent="1">
                    <mxGeometry x="582" y="378" width="190.26" height="30" as="geometry"/>
                </mxCell>
                <mxCell id="81" value="" style="shape=stencil(lVjbUhsxDP2avGos+f5M6X8wQyiZUsIE6OXvKzfj7VrenMDbZqOzlqwj6dg7f/P6ePey34l7fTsdv+9/He7fHnf+y07k8Py4Px3e9Gnnb3f+5uF42n87Hd+f78+/X+6aZXv6cfzZvvD7jGPnyLkGE/fn/MpRkn8vvp4BT4fnFaBWqnmwD8QJ2vvx+8zkKgAUyjICIhW0QiEeARpCRSFkcn4EJCoeACKFMgC8J44A4CnVEaDbgFxiyqNLIVACLpVMOY6ASjkAgJAfV4iBqrsMyIlcGgDJwUynJcQFoPvGACDd4w7Irq+5CYiJ/JiHHEgAoO0Jj4BCHpAvqEsjW3XfIsi0zyRjpkukmAFAmTPmoaUSJE4qpTHTpVIAQSuZDVur1kMBAE9hLOmqZEErOPIGoIQHK3CmMG5rDbCmWdlvABHWNAvJuK01UUYrKJnNCrlvw3YBkYxk1b7jQMyJolh71FjZ9tXWaUEHYIpjwKtWfgHgyrQACEDnQLL2Bdqb8lf7BGrN9TGwsg+g1KZBpfYM/XHRJqCCduRIJvsEGOQoJmuP6lKLcLL3MMGBrb2A/WQqk//o+7IRLyoA2Yg3Qfs8FQwitNpPfBDAZ+ktZ80f6E+I1j4DPsjUIJT/cP9nfyq0l88VsNvYINQTHYWpIFFLdF3TrOwjmEzqLVt7AQlQ+8kfHC+bjli6SroU70ToCAu+TB0ajb3P2sfeDlYTBhF6+feDI0zbH1t7AQ1UhbcYh2LXFtsA3zXoamzDKazSwwA8BqhmNDnTNoC0ikxKgrvc2QZEqxlVDTEq+2IHayldjGwrumlylwSVtU928pXQ1fy2KmXLpMKQGUE7uVHWmRIIOkZyYwzZUwQxJO46ehH7FU6blDsRFkDoB73tagjd4+XAUmE5l6k+9YTjQQyaJiPF9byAjhNlPvuGzq5Lx7o6slXPgYxOmt4OES9QpGkFm6ahwjODoFuPGGNofQ10eQUYXaHncVSi2uUMNdqJHwVd7CC5cqWQbRquXFmU+YoDCYVmX409onbTZd7YCyBq01ls7FFHajrLft+hjBUqdn/QnK3TILlqb5r2FX+qVY5X4q32buPKfi7nkg/maypjzIdP35F9AKAP/6/kHg5PT+cbvfX/9gpPX52v//ztXw==);lineShape=1;fontSize=16;" vertex="1" parent="1">
                    <mxGeometry x="807.8659494614558" y="121.19525967646007" width="139.75232322229294" height="227.071398751552" as="geometry"/>
                </mxCell>
                <mxCell id="83" value="" style="shape=stencil(lZbbchoxDIafZm81tiWfrtP0PTITUpjSkCH09PbVdscUid2/7R0Yf+j4y5r44X3/9LabUni/nE+fd98Pz5f9xB+mlA6v+935cNFPEz9O/PByOu8+nU9fX5+X729P883505fTt/kffixcDpTLTKXwczmJhXr4ffJxAY6H1xtAAvVoAFaAtwEWataC2oxxG0hMRQxQmUIGLmWSaoBSqNVtoMU7l4QiAgpFtgATgxh6IMkeQGntQuxcytQaAOqdhU6hAKCTBJslTSuwEEOg4IhKWaCJ2G3lInXkUx0uX4G/RM3UbCFqg3lt3QMtUOkA0GayMWi3BNxMqXgLAbhUNYkuS9eTdUAVZEutJwEB2pw26NKhIBRIrtKZGAFCYoMuOEtVh4QNOtfRj+tp1cGUvEYrqoNQaV5yAgaTtkYQD8D25rspkKGCeqHMPugGCtfb+PkmrQUErYrrrg6FAghagWLTWq+J3pKom/da+4I0rTlxQKOALKiArEta+4TqoMCdphGgzeyCbm1Etf6i6ANhY5gnFejW1IithZvpuT5dxRNzpkGa7oaxSkpALyXK7lFMo9+3HKruYe/jZN1AHGUdQKrEwELqXqH6TIP7HCnauSdwZLDq0wo64ft5yH3c190G7Bnc/JQMYyBsrkrN3UctIUzV/38GSpPihRPhhBRtUusPjx5Zva97mnud83iI1u/HsURdZQY7VO8Xq+MY4ValgLiAdW8DA/i/t9t/APTDn2X65XA8Lrv47e9++dajZXHnx18=);lineShape=1;fontSize=16;" vertex="1" parent="1">
                    <mxGeometry x="802.643127584839" y="337.43509253998445" width="18.843038291321363" height="18.240777026472188" as="geometry"/>
                </mxCell>
                <mxCell id="85" value="" style="shape=stencil(lVnbUhsxDP2avGpsyddnSv+DGaBkSoEBevv7ahucRPLuYfIWFp21LR0dSd6dXL093Lzc7Ti8vb8+f7/7vb99f9jJlx3z/unh7nX/rr92cr2Tq/vn17tvr88/n24Pf7/cLJbLrx/Pv5Y3/DnghKmVBcXh7+FJ7xTb/ydfD4DH/dM5oFAMFlAppW1AipTdComaAECm1C2AqYMt5UCZLSBQASvkQiwG0Cr1sg0oTJwsIFNkAGjj30eAviJvA6r4FWqnggDqdXsGfSLASy0S2y1VPQNYoSXKNg5V4xAAoFKoFhCooRW6B6jf0Aoa12oPXQolcGhlTrTkK0IVrTDFoegZQKSVzB/pMgC5UkMrKPujBSTopZ5JbOByHEm7BfhgzgCk9hmg2ZzWHGwdA6xbk+A4ZKoOECkhL+mh7RmkU8JxcGyVigEaaRsHycRoS7pjtyWhAJSvNRJ7aFGlijDjxNKbMZcWjbBs5UQdbEllptmM4wjFuGhO2y3FNuR5XVv7IPMRkKHyZa1ANoEiDzds1YfuKtAI/XrF6p57FXJVNAr2/RlKhi7PLt0gj/R1nnjYPlCy+2eYOupvV6EZ1qpO4igxQr6+HaouvpCi0WuRPgDOV4GvzhzFKgzPncwZHDVQsOaBOjSP3ZmjtkL3npz5h2e3PBOdeQQizYOEJ3MUJhkCfmYOwpR9JVZz1BBR9HtnIGxl3gxqGbWR8Y6s4O1HnT+RIEDz6DkjwDPF91naz4K958HXk3kFFEv+qBF2G0LxEnP2fI+jf9pgZPBvz0C5gy/R6kjgd2XUFCacq9aRAe59mgHCqNYbR2XPSCQc7FuwMPJlI0zpkuRLVCZzVAAvM49plrGE7JuX7DAWXPeNUPGazUCzWd8/1TPEeR5N06leogzUvs8Jax5UWnenJpUbKmDzm/oov6f+I6AGp/j6HeMYAdYVRyYNSaOFWVe0aSzSGCJK6Kjo+0bcjreJ0crCDLakvS9PrSzSfJ3UnBIKrik6IWS7wnKXAQ7dp7KiDT8KXG++cVRqCeqk+rSlDlsABXRLVR2LBHAvhqmFSQL78WUJe+pT/7wF8MNgw8Ng9/zW+bSjyOmQbwVGJ+BPAOIyuo6hYTPU7mIh4BXKkKyzewJIJp3Z3T1BGbK2NW66lql0eP2i42ZwY0vE9zWNsg3ccqmEcnRq+mqGBX+5QnKXVJ/Mp9XX/BZG97UOiH62awx7P/W6XyEP+V8HBN/kqN9Qp6DcFEsNjUxE5bkPoTsC8OWIJmSxZ1huP9CVapi2VOEgo7rl+kZNWsRWKZ7eCqj4WtgfusMUVe11IrAoFYiDAlKcAGjun1L0TD23EE4FliVQnye+QiwAFAjxjeTiJjTG8djAeSBwt1SnQMDrEfa9wCLoKBA8JvgzAGr8L//G8DlAf5w+adzvHx8PX0TO/+8/geijw+cTuf4H);lineShape=1;fontSize=16;" vertex="1" parent="1">
                    <mxGeometry x="359.0830871283458" y="34.52771711574405" width="60.34343518697665" height="244.49202260182096" as="geometry"/>
                </mxCell>
                <mxCell id="87" value="" style="shape=stencil(lVjLUhtBDPwaX1Wj0TzPhPwHVZjgCsGUMXn8fTRxjbG06w7czOL2qKWW1LMbuXl9vHvZbmJ4PR7237e/dvfHx4182cS4e37cHnZH/bSR243cPOwP22+H/dvz/envl7vxzfHpx/7n+IXfJ1wUynmgYvhzepKZcv/35OsJ8LR7vgCIUC8GUBqFCACdajSAWojrdUDKVIMBtDSDXD+hUGQD6IEEnBA7pWRPiJQFACKVZkkXyu06gBvVbtNaqYOQWClaDqlRA6Q5ULB1GIkGhSuzSufvM0XAOVCr5vv6JIM6azy2alpGlKFA1Qrv/APrJWASmyAhLlAUxdWYmKHqks2PRthAPnOiagNioZpAARIFqwnWGEFINVK3KWUVLtBE18aynJV0BiH1RtGeIAGG1PvskzNAKIIscVjoYrQrEMY4YiHsCFpnkLCsE88ZdS1NjnVKs5nWAeK1pGoRlFeVzgJQAOmmM7R6QAClbvp7tn2SUAKFaEKNfZYYAaJvUGkkiEOci+MM0CwhDkLixBRnE64Dkm8IneQdDI1WiS0HbQiY1k7NToFYZ2XWKx29NAYAaSl70hHvz17nprkg3ZD4OnHzaUV1UEC3HLRwsOM0ANfTKg1QB23R6uSt4kOkC/WlvBHpNAfdZQOhE3iup4+3aF+0qIBKt0JpMWYYqfWzgOG83KhU8QEOuS9aNMGNksNCSwxtSdL94eSNp7f+XrFzSZ1KBStI9360pGOa83w9rT4i3aIBHMDVOx99EoD29HxZWKuCAEspBeqgbiLesGph0CxWHSRn6zucASMAq4xyTsM6oEw3eOGhBRms7uumsxO59BTnQnt3ZNgjqpiD+COQJx7atEfoikFzSUvtFkr9j83V/WDTVAK03cx+A+U270PXAGJbVK8aUN/sN1DWcY+uGqpmK9cs0FYqaR8SdmTqnJMLCftQvS45c5LOtnEdULz6xv0KGVeVf/OAggqnAQQPQNLQG01YcEALRW+hyyyhlvv05f4DAP3w/i7hYff0dHoVcfl//+5BH53eW8jtXw==);lineShape=1;fontSize=16;" vertex="1" parent="1">
                    <mxGeometry x="353.8967645744349" y="23.323394989134613" width="29.34299435069056" height="27.323748632752313" as="geometry"/>
                </mxCell>
                <mxCell id="88" value="" style="shape=stencil(lVhJchsxDHyNrigS3M9O8g9XWY5VcSyX7Gy/DxiFkyEwaik3aQY9BECgsezC3dvT/et+x+7t/XT8sv9xeHh/2oUPO+bDy9P+dHiXX7vwcRfuHo+n/efT8dvLw/n/632X7L++Hr/3L/w841qlUDqK3a/zkyxPwp8nn86A58PLGpAosQa4DABMrWkAVwBwFKMGRL4MqIWqUenvJ7YBiXw2AGB0ZcpeAxI6wVEwKjVwQhGvG6MLMLokymEGlKHkNiAQq3uI1IANxROrE+QT4Kb7vWYNcEAlUYCV0TyiaxvA5IIGeKBSalTVCZ4qCL5UqGQNKA0AInmjkkMAT65oQAaAuATCyq0RGB3zeL266eQAQGxwM0CyHKnkqKUZkMmny4BQTcYJANx0EAXMCYwAPO51BajA6OAoK6MlgYBbWV4rlRo1EEuchsYDUJgicCuLDTPNlATDmx2l2ehSxs1sAnwZKb8AGgWgkk/UZi/VhRa2AWFEzgA0nEDej2qwAJgCKijESctncA1F30ILkFm9Trcm9QXo40YQrAxuUD7Ol1zDYLUL8k7dMUNWdePtEqbyBPC8I57lhXAiSBzJm5m/Aq7nfvQTi7wbHLsd1IMYhjxnWNikvyhaHukjtz/7UyIKEUWkqOzFxBK1PsLHqFcwLJEqvF+hhDnBioPycSuDgX+i7gilIcsgPsNgzVW+eOAfIbk5HrwTAwDA6wayNZgwXgd0i6P1uRDQikQrDiCna5mwdIUJ5lShieQAScv3Z/0TbnLcKCpLwPlBMRf842Z5qZ0NEmKdCVcoNaG6N9qZRT5BQgx6ouCKS/2WPEyYoBJ+GUkuFIww369vcDpoo/ys5GERFocqxnKjEb5UU+vsUZ+poAyQ5mo+wTvoUl911RYA6gB7ks0nVNjEdpZQLDdoYFs+6yBlOKywmZ8kK1BDaro/zEG2vXSwKbD9q4cxZBtkTwnI2w5c5FERMC0+w6ndzhABcpAdUoRzgT/tFBQhR9gxSxxcgLyZ4xKe+8ygmGDXaifRBO+rj7pJySPO6lsYVQTIgQSWYT2pAWu0LdvyUct7hnufknVb02cJtDMxKxAJUQ9UsksWXoy6cY0jADQJ2EVRB6BRw6yiOgCEhV129er5X+u0npiA6OzCrg8swK0CUJkgJyBqlO5KpVpvgZFKTXNFH5WR0U2TRbjiJSmoc2hc6cFXLeXCLzwy8GYEnvusUimMpL3R7HRlE2ocK7QTMUAvoxIOcBMcedly3Bh+1/bF1wHy4996+vHw/Hzebq/f63W2PDqvwsPH3w==);lineShape=1;fontSize=16;" vertex="1" parent="1">
                    <mxGeometry x="560.1788586981531" y="166.58591916068485" width="126.08318836237345" height="8.91006520842302" as="geometry"/>
                </mxCell>
                <mxCell id="89" value="" style="shape=stencil(lVjbUhsxDP2avGp8l/VM6X8wQyiZUsKE0MvfV9vUJpaTw/IWFmlXlo6OjryJN6+Pdy/bTXCvx8P++/bX7v74uIlfNiHsnh+3h91Rf23i7SbePOwP22+H/dvz/envl7vFcvn1Y/9zecPvk58IcV28gvtzelLJ5X8Pvp7sn3bP5/aVigz2PpET4MDtfc0hBMoMHBLx+IXoafnzqkOgxKODUC7AwdmQElNK1x1qphoGh1woReAQKPjBoXiq9boDV4rGgSk44JAojHXjQBHUgR2FNDowZVDpUsgbZGjhwBmKBjDWoTLMUq4tgOagpXQAGjmTH6EhmRhAI2tIY+EUjgyylIRKHB0qCTh0KlTGtC4dBQqXIgXTQE7xCDwUzZ/7RFS4ZuvgAb5jsKXWU0eADSWJUm1e/wP4skO2+NY2F9CjoSOhO3iYJS8WG9q1GWDDF+LxC4xpQ4mOR2xwbGm47BBInG3qCtLqvcWG0oaADhKq4xGUl1AZmGRsByU+Ae1QKI8HSJ4S6gaqY4ZighwTyY/2CqwACMBZwvA6rQCwXYN9ty/kACZ6I3b72ECy8v2eMsj/FL9QAun3FtK9flfMxaAHtxjVYswZxB4b074HgwZUskNZGQUgJ7c6vrMiecTsFMfgtdkCQFqmNPKPdnNGs8ky4kIXwD5ZQlRkFhB/bFOlI1+xB7Pvs7VngPzQ+milvW8CaGU8/W0rz+tadVbm07U+XVkvtf8UHlwTSyvx5lorrYOzb620rlm6Il7biqZYuNHTpPwgjSQ7VDBJfdJcQx3NFThIt05KY2l9NEOdnSmLukHIn1g2Vkjiiqw8FjepCkUhJdssKmQZKY1iz1DwCuS5BdAdcHupWsoGE5olNCz85MCwbsu8MOuDziekKcu0PuT25LKD2CzpvoEEnAIhmZAUXUhIFzuVqkB9pVLd1KF+uA1Y1SpQ8em+EecvgENnbzWcHrqCkLKOpjSlFVQ6s51NNUFyLK7twmfKG61xRafryL6coPIudSJUafvyZWGs0DANFOGyy8Vu+JoGlFbuZeoOvgmwa3cIZovT2iMSqMUuu0pkDM6woH88Q/TQQZwlb+3yivaTaLc4pTaU1uXyxypkNJZ1/zcrVhdKl+2nS40AZY7aZ6MryKH4ub2u2bsmPK/ZZ2uPFhrdy1209gB1am9o28E+EJnjr+iyTiZdDWWmiN0iAgaQTBsrzP/ZXUpvM0oIQNKG0pn0wgee70vRXeOH96v64/1y9mH39HS62z3/v73M1Ueni+B4+xc=);lineShape=1;fontSize=16;" vertex="1" parent="1">
                    <mxGeometry x="632.5839211706036" y="169.38709325943432" width="102.83987947950686" height="39.50806587308443" as="geometry"/>
                </mxCell>
                <mxCell id="90" value="" style="shape=stencil(lZZBctswDEVPoy0GJAiSWKfpPTITp/bUtTOO0za3D1wNHZOKftudTOoZEPDxyUnuXrYPz5sp8sv5dPy++bV7PG8n+TLFuDtsN6fd2Z8muZ/k7ul42nw7HV8Pj/Pv54fLm5enH8efl3/4PXNSScqFivw2rwSjrH9Wvs7Afne4BYw4d4BGCrwOFI/APcBkcR2oSiH1QCCr64CFRQSlaADIY4TMpAEAtgAKMUgpMBP3OZVEgkJUyrEDaqCUAeBl0h4oVAqoq5H1gEVS8BFVSHtteEwBdS2Z8gIwoI1srbFXIDV5fQ4kin1ZjSGgHkH6KnkfBACFcugbVyiBgXBAB4Ap4JSGCFkoAmn4dukBjykJlnUYapUmlrXGDWr1kWPQ6RrJwggIFt8yJUPyTouPrqRoqBdO5mIpyDasJXBtXKCKAelHtFx9Yc1ndJhppYpMwBPofcZXAhpRpWLjABXsxuPE+Yiima5t+x+BpKOWbszwc7N0rfWdc+tDneNWxFt5gwALL/aVDPrGbeCvX6AwnzDWNOCupYVj4BO0eWh7XaDPe3DrReQHCSp/ptSn4/4Fzmf/O5bhfdTeqKRDOYmBGUVrCv74XmSP4tt9PpkEOIvoeA4GhkezlDGhkKiCM+T/L1V/B/zh4w73tNvv5yvg7f545/Ol+b4o9+8=);lineShape=1;fontSize=16;" vertex="1" parent="1">
                    <mxGeometry x="633.1035688941818" y="171.50956624174705" width="10.944722356484363" height="10.377063717006195" as="geometry"/>
                </mxCell>
                <mxCell id="91" value="" style="shape=stencil(lVbbchoxDP2afdXIluXLc5r+R2ZCClMaMoT08vcV3Rqw2D2dvi1Gx5Z0ji6TPLxvn942U+T30/HwdfNj93zaTvJpinH3ut0cdyf7muRxkoeXw3Hz5Xj4eH2ef789nS3PX98O3883/JxxrVDNZ1TkX/NJIUl/Dj7P9vvd6619oyyDvQGU1wGBmZgHRGL8RCVpA0AjhQwAkXQE5EQa1wG5EdcB0BJJAQDp910AmQoAqBKPabKo/iZuEZBSz+IF0KgAgAhx8oBW1wExUL0DiALm4l2WCjVAdaLi7LWfLNozFReyUAS0McUy2jMlcL+RNgZcTewoYO4yuwCUcgCARsm9IJADMYeDBwTgUgrUogdEwIGVSnExJAqoFkwWwQddEaBSGGmrdgKyVJjaWJ7GWwH1bIDgiBbYY7L2UrkpTwbFo+bxXXkyIC7VO5eMexCDZKpj0DeNcLk+ldLdExk8EdQTYUEgn8yl6rOkqB4oO4dSf3GlPl2jb6F38uWIiZ1UrUdie/X2BWXUGpKbC5EESFsipVEWGjrvqyyPIUjrYl8GNJ/TWGHPM5eqC7pLd20suOGZKSKdWrG76Yx7qsXn5n8X+nLhKOloH0jB/da/4ihShnNTm+fYVAj8ycXvL7gqi/Zd5WqPhmaNvQSv8Qaw7JiE3e5iEgX+WCeUUUDSE7Bsn/3morCV/vc++E97+7guny+7/X7eXW//98uqHc2Lrjz+Bg==);lineShape=1;fontSize=16;" vertex="1" parent="1">
                    <mxGeometry x="632.4561008388514" y="172.73840690523048" width="5.733690994178687" height="24.078471721461938" as="geometry"/>
                </mxCell>
                <mxCell id="92" value="" style="shape=stencil(lVbLbhsxDPyavRKiKInSOU3/I0Cc2qhrB47Tx9+Xi60ci/ZOkZu85oiv4VCTPLxtn143Uwxv59Px++bX7vm8neTLFOPusN2cdmc7TfI4ycPL8bT5djq+H56X369Ps+V8+nH8Od/we8GxUm0zKoY//75QWj58Xez3u8OVfcykabDPJGXdXgq10Z6FYl4HpEI6BhQTqa4DcvYZmM8U1wElUY4DICkJCEkjVR1ztqwAoEoPoANKoSLrgJao8gBQy6ECgFIbPWijGgCgURlzsCBrgoAWRkAlRiFVyqOHFkmQB2ucjIBMjQGAe9UvAPMJAFU7Ny+A1lt5HxA9NWYAaJzqnZAQ+TQRR580orfaPIovK4OJ00DsOm1BIg+B0g01Cp4HGalh5EP01kxp7IPRG06c3efobXUDXKqp33cBmMwgQOtFvAIoYqtQHvtgWWWglDaiweVQqeARjWMORscEqsQhUHAzauqJdKb1Eb6QifsV9wGFqgOYVAF+W5lk1HurA+K3qYpbEBZkBvyuNxN0VYc1NiX2LgLotXU2uqwLHtLPArIFcNPrAkJK1cvALAwg6cTEY9KFSUBIIsTjHs0BCo1tfh7ZJ1j75s0/hmSrPQAPpoyu05ctdj8FL2Rce4j3AyIdE+AC7YPfDpYR6vLNeDJTBPkGr0mVFKw39tcXeHv01bHig+BTf4BcmgVvL/5BEqghJeps/zBHXOPoo8EjzzaQzdlDKf3kM/j/9nb4eHO/7Pb75cl+/b9/o9un5X0vj38B);lineShape=1;fontSize=16;" vertex="1" parent="1">
                    <mxGeometry x="636.9911469506485" y="172.38712457201882" width="18.73764977761789" height="20.908874718415746" as="geometry"/>
                </mxCell>
                <mxCell id="93" value="" style="shape=stencil(lVfLctswDPwaXTEkwOc5Tf8jM3FqT1074zh9/H2hqpQFytpMbrLMFYXF7oIa5OFt//S6G9i9XS/n77tfh+frfpAvA/PhtN9dDle9GuRxkIeX82X37XJ+Pz1Pv1+fxpXj1Y/zz/EJvyecTyRxRLH78/+OIy7/7nydAMfDaQnIxNkAWEgCAFSKFiCFomwDmCklA4h6JwJAIs8GkCI5tw0QR8UZQE7EDABC0QKSI/HbgOAo174GnwCgULBFB6EMaI2JglhaI+xDCj1LnCmAGnIk30kjUwQslUhsWSrkwRuVTDVYVkmAMKqj2gmDCnifKuvnIx3V1Cu1wBZU1XGxBHkqGQAq5Y7RSBlVUPuK1U0f7OCt7tSdpQLA3NKFKgT4v6oqrO64NprvA5jY1iAetrnU5sUFIAA7F5VNB3DtJe8DpJG4KDoBdxZeFR2IgZSKX6WkazRsAcQ2TpPZo6KZgt3BK9HAziU0EhugwpBUVqt9o9RSc6tt1Ypb3Yl1UUv3fEbuV6tYHWl8IO+UVt5ismW0Qe0j2AdoBe/caguNcWQenYWWo3HYAVK1CN/pSMWOALHvmrYZyeLTgLLqg85zBo3WOVItSzrsEK9Jc9Xmtg47BqmXfLPKLKXQovz+tE19AIz+A36W1EqczRPIgaI1H5xNjIVa7quJydkUU6Yjypg+V7PAXI3tADKzWikBA2nAWK3qiSSAUeIoWT/rjsjQa/NwO3Bsrbc9U7+CDrhW3CK+0DG1+XCuth35NsipnS+bZu8LjpKVjycHqNSDiDfLHTyezqFzWw6V5hpxt/UBNMqvJriHKeelMT0nBBxlegjq7BvbKWZrfTdpdHqj9//0N87HAL24fVK9HI7H6Yts+X//Caa3ps83efwL);lineShape=1;fontSize=16;" vertex="1" parent="1">
                    <mxGeometry x="132.98949716901325" y="169.38025665715827" width="27.079818023853022" height="19.7941733961884" as="geometry"/>
                </mxCell>
                <mxCell id="94" value="" style="shape=stencil(fZbdcgIhDIWfZm8zQAg/17Z9j85U606tdqz9e/tmZ0c0uJ47xP0I5JwEBl59bp8/1kNwn6fj4W39M76ctgM/DCGM++36OJ50NPDjwKvN4bh+PR6+9i/z74/n6ctp9H74nlb4nbmSKZeJCu5vngmZ6jzzNAO7cX8FVKEsBuBKrgKg9oAE8gkCbLeUhEoEQKSUDZDLeWYRKIl8MEDRmHwfyBrBG6Amyu4+kDxxMoB3jhwgYu7TVAsVkFcWCs4CTBEoF4RctKeOxHIf8IXYpikHikAIf+MNUW94AGSSaoAoFIE3AlOyeWU+p2E5S9yfQZcQILVuQOwZdJNoS9Ls3wA5u2XZTIHECqeJ9kDpSaauRiNVcAY1QhdBzeLBli5WazpkSsBLV25uRaqWRyFawTQzRRIQYirJzq5atkBqLfouwqUxLBepthWb10vrWZY6UOAeyKCCtDV625mm9gmUC4Wc3VLJMMIE1BsA2FW9JraVlQB7n3c9oMKhCLEvIM1zBPZ25/umNQ1tVEC2G+fFCC8g398O2hNQuQlVu752DBfA+q0ptnqO5JFmeuIuo9DY7KjY71UxdJV4EntifPWorW++R/dC4t7V3DlIB5cHx2bc7eb3yvX//QNFp+bHDT/+Aw==);lineShape=1;fontSize=16;" vertex="1" parent="1">
                    <mxGeometry x="771.0711468776321" y="511.4753490796131" width="4.672539772115215" height="4.665236216357243" as="geometry"/>
                </mxCell>
            </root>
        </mxGraphModel>
    </diagram>
</mxfile>